<?xml version="1.0" encoding="UTF-8"?><svg id="Layer_1" xmlns="http://www.w3.org/2000/svg" viewBox="0 0 60 60"><defs><style>.cls-1{fill:#231f20;}</style></defs><path class="cls-1" d="M30.04,54.5c-6.02,0-14.12-3.39-17.13-12.93-3.34-10.59,3.49-17.64,3.78-17.93,.28-.28,.7-.37,1.07-.23,.37,.14,.62,.49,.64,.88,.11,2.11,.85,7.94,3.02,9.59,.49,.37,1,.48,1.62,.34,1.11-.25,1.12-4,1.13-7.3,.02-7.75,.04-19.47,11.6-21.41h0c.55-.09,1.06,.28,1.15,.82,.07,.44-.15,.86-.53,1.05-.09,.12-.26,.39-.57,1.01l-.1,.2c-.66,1.23-1.02,3.47-.99,4.84,.09,3.57,2.81,5.77,5.45,7.9,6.03,4.87,8.53,10.51,7.65,17.23-1.52,11.61-11.72,15.93-17.79,15.93Zm-13.39-27.58c-1.66,2.55-3.89,7.53-1.84,14.05,2.68,8.5,9.62,11.53,15.22,11.53s14.45-3.85,15.81-14.19c.78-5.97-1.48-11.02-6.93-15.41-2.85-2.3-6.08-4.91-6.19-9.41-.04-1.5,.31-3.79,1.01-5.4-7.55,2.74-7.57,11.59-7.58,18.83,0,4.84-.02,8.65-2.69,9.25-1.18,.26-2.31,.02-3.27-.7-2.24-1.71-3.17-5.82-3.56-8.55ZM36.1,7.49h0Z"/></svg>