<?xml version="1.0" encoding="UTF-8"?><svg id="Layer_1" xmlns="http://www.w3.org/2000/svg" viewBox="0 0 60 60"><defs><style>.cls-1{fill:none;stroke:#231f20;stroke-miterlimit:10;stroke-width:2px;}.cls-2{fill:#231f20;}</style></defs><g><rect class="cls-1" x="14.74" y="14.74" width="30.52" height="30.52" rx="4.62" ry="4.62"/><g><path class="cls-1" d="M22.19,6.5h15.63c1.15,0,2.08,.93,2.08,2.08v6.15H20.1v-6.15c0-1.15,.93-2.08,2.08-2.08Z"/><g><circle class="cls-2" cx="24.88" cy="10.62" r="1.4"/><circle class="cls-2" cx="28.29" cy="10.62" r="1.4"/><circle class="cls-2" cx="31.71" cy="10.62" r="1.4"/><circle class="cls-2" cx="35.12" cy="10.62" r="1.4"/></g></g><g><path class="cls-1" d="M20.1,45.26h19.8v6.15c0,1.15-.93,2.08-2.08,2.08h-15.63c-1.15,0-2.08-.93-2.08-2.08v-6.15h0Z"/><g><circle class="cls-2" cx="24.88" cy="49.38" r="1.4"/><circle class="cls-2" cx="28.29" cy="49.38" r="1.4"/><circle class="cls-2" cx="31.71" cy="49.38" r="1.4"/><circle class="cls-2" cx="35.12" cy="49.38" r="1.4"/></g></g></g><line class="cls-1" x1="6.5" y1="53.5" x2="53.5" y2="6.5"/></svg>