<?xml version="1.0" encoding="UTF-8"?><svg id="Layer_1" xmlns="http://www.w3.org/2000/svg" viewBox="0 0 60 60"><defs><style>.cls-1{fill:none;stroke:#231f20;stroke-miterlimit:10;stroke-width:2px;}</style></defs><path class="cls-1" d="M52.37,24.3h-5.89c-1.01,0-1.51-1.22-.8-1.93l4.16-4.16c.44-.44,.44-1.16,0-1.6l-6.46-6.46c-.44-.44-1.16-.44-1.6,0l-4.16,4.16c-.71,.71-1.93,.21-1.93-.8V7.63c0-.62-.51-1.13-1.13-1.13h-9.13c-.62,0-1.13,.51-1.13,1.13v5.89c0,1.01-1.22,1.51-1.93,.8l-4.16-4.16c-.44-.44-1.16-.44-1.6,0l-6.46,6.46c-.44,.44-.44,1.16,0,1.6l4.16,4.16c.71,.71,.21,1.93-.8,1.93H7.63c-.62,0-1.13,.51-1.13,1.13v9.13c0,.62,.51,1.13,1.13,1.13h5.89c1.01,0,1.51,1.22,.8,1.93l-4.16,4.16c-.44,.44-.44,1.16,0,1.6l6.46,6.46c.44,.44,1.16,.44,1.6,0l4.16-4.16c.71-.71,1.93-.21,1.93,.8v5.89c0,.62,.51,1.13,1.13,1.13h9.13c.62,0,1.13-.51,1.13-1.13v-5.89c0-1.01,1.22-1.51,1.93-.8l4.16,4.16c.44,.44,1.16,.44,1.6,0l6.46-6.46c.44-.44,.44-1.16,0-1.6l-4.16-4.16c-.71-.71-.21-1.93,.8-1.93h5.89c.62,0,1.13-.51,1.13-1.13v-9.13c0-.62-.51-1.13-1.13-1.13Z"/><circle class="cls-1" cx="30" cy="30" r="8.24"/></svg>