<?xml version="1.0" encoding="UTF-8"?><svg id="a" xmlns="http://www.w3.org/2000/svg" viewBox="0 0 64 64"><defs><style>.b{fill:#889092;}</style></defs><path class="b" d="M42.69,16H21.31c-.72,0-1.31,.59-1.31,1.31v29.38c0,.72,.59,1.31,1.31,1.31h21.38c.72,0,1.31-.59,1.31-1.31V17.31c0-.72-.59-1.31-1.31-1.31Zm-7.2,29.77h-6.98c-.48,0-.88-.39-.88-.88s.39-.88,.88-.88h6.98c.48,0,.88,.39,.88,.88s-.39,.88-.88,.88Zm7.35-4.4c0,.77-.62,1.39-1.39,1.39H22.55c-.77,0-1.39-.62-1.39-1.39V18.44c0-.77,.62-1.39,1.39-1.39h18.9c.77,0,1.39,.62,1.39,1.39v22.93Z"/><g><path class="b" d="M40.01,18.8H23.99c-.59,0-1.07,.48-1.07,1.07v20.05c0,.59,.48,1.07,1.07,1.07h16.03c.59,0,1.07-.48,1.07-1.07V19.88c0-.59-.48-1.07-1.07-1.07Zm-8.01,18.1c-3.87,0-7-3.13-7-7s3.13-7,7-7,7,3.13,7,7-3.13,7-7,7Z"/><path class="b" d="M35.24,26.63l-4.69,4.69-1.8-1.8c-.34-.34-.9-.34-1.24,0-.34,.34-.34,.9,0,1.24l2.42,2.42c.16,.16,.39,.26,.62,.26s.46-.09,.62-.26l5.31-5.31c.34-.34,.34-.9,0-1.24-.34-.34-.9-.34-1.24,0Z"/></g></svg>