<?xml version="1.0" encoding="UTF-8"?><svg id="a" xmlns="http://www.w3.org/2000/svg" viewBox="0 0 64 64"><defs><style>.b{fill:#889092;}</style></defs><path class="b" d="M18.02,39.58c-.1,.21-.16,.38-.25,.54-.25,.43-.64,.61-1.11,.45-.49-.17-.76-.58-.62-1.08,.28-.98,.61-1.94,.98-2.89,.2-.51,.67-.66,1.2-.48,.83,.27,1.66,.54,2.48,.83,.64,.23,.93,.71,.75,1.22-.18,.54-.66,.74-1.33,.56-.1-.03-.19-.06-.42-.13,.16,.28,.25,.47,.37,.65,1.89,2.87,4.4,4.95,7.67,6.08,.76,.26,1.05,.77,.78,1.35-.23,.49-.68,.65-1.32,.44-3.25-1.06-5.84-3.03-7.91-5.72-.44-.57-.82-1.18-1.27-1.82Z"/><path class="b" d="M45.97,24.44c.11-.23,.17-.4,.26-.56,.25-.43,.64-.62,1.11-.45,.49,.17,.76,.58,.62,1.08-.28,.98-.61,1.94-.98,2.89-.2,.52-.67,.66-1.2,.48-.85-.28-1.7-.56-2.54-.86-.6-.21-.87-.7-.7-1.2,.18-.52,.64-.74,1.26-.58,.12,.03,.23,.06,.45,.12-.13-.24-.2-.42-.3-.57-1.89-2.89-4.41-5-7.7-6.13-.71-.24-1-.69-.83-1.23,.19-.57,.71-.79,1.43-.54,3.73,1.27,6.58,3.65,8.71,6.93,.12,.18,.24,.37,.4,.62Z"/><path class="b" d="M27.37,17.98c-5.19,0-9.39,4.21-9.39,9.39s4.21,9.39,9.39,9.39,9.39-4.21,9.39-9.39-4.21-9.39-9.39-9.39Zm.81,14.24v1.69h-1.69v-1.66c-.73-.06-1.44-.21-2.14-.47l.38-1.72c.81,.23,1.56,.4,2.33,.4,1.01,0,1.22-.23,1.22-1.06s-.07-.95-1.39-1.22c-2.14-.43-2.48-1.04-2.48-2.95,0-1.67,.59-2.54,2.47-2.7v-1.69h1.69v1.7c.56,.04,1.13,.12,1.66,.25l-.22,1.81c-.66-.15-1.54-.25-2.42-.25s-1.06,.16-1.06,.92c0,.82,.06,.84,1.44,1.19,2.38,.6,2.44,1.17,2.44,2.92s-.38,2.6-2.22,2.83Z"/><path class="b" d="M38.47,28.3c-.11,1.33-.46,2.6-1,3.75,1.08-.12,2.12,.05,3.13,.44,.1,.04,.2,.09,.29,.15,.21,.14,.28,.32,.18,.55-.13,.34-.28,.68-.43,1.01-.11,.23-.25,.29-.5,.24-.5-.11-1-.24-1.5-.34-.7-.13-1.39-.07-2.05,.19-.66,.26-1.07,.76-1.37,1.43,.11,0,.18,.01,.26,.01,.66,0,1.32,0,1.98,0,.34,0,.44,.11,.44,.45,0,.19,0,.38,0,.57,0,.32-.12,.44-.44,.44-.79,0-1.58,0-2.38,0h-.19v.62h.24c.77,0,1.54,0,2.31,0,.33,0,.45,.12,.45,.45,0,.18,0,.37,0,.55,0,.36-.1,.46-.45,.46-.68,0-1.36,0-2.05,0h-.28c.05,.13,.08,.24,.13,.34,.42,.97,1.17,1.46,2.2,1.58,.74,.09,1.44-.05,2.15-.24,.19-.05,.38-.1,.58-.14,.19-.04,.36,.03,.44,.21,.17,.36,.33,.72,.47,1.09,.09,.25-.02,.44-.28,.56-.58,.26-1.18,.43-1.81,.52-1.21,.17-2.37,.02-3.46-.53-1.27-.64-2.02-1.7-2.44-3.03-.14-.45-.02-.36-.49-.37-.24,0-.48,0-.73,0-.24,0-.37-.13-.37-.37,0-.24,0-.48,0-.73,0-.24,.13-.36,.37-.37,.29,0,.59,0,.9,0v-.62c-.07,0-.14,0-.21,0-1.32,.7-2.8,1.15-4.36,1.27,.42,4.8,4.44,8.57,9.35,8.57,5.19,0,9.39-4.21,9.39-9.39,0-4.88-3.73-8.89-8.49-9.35Z"/></svg>