<?xml version="1.0" encoding="UTF-8"?><svg id="a" xmlns="http://www.w3.org/2000/svg" viewBox="0 0 64 64"><defs><style>.b{fill:#889092;}</style></defs><g><path class="b" d="M42.38,26.49h.79c.38,0,.69,.31,.69,.69v1.62c0,.38-.31,.69-.69,.69h-.79v-2.99h0Z"/><path class="b" d="M20.15,29.48h.79c.38,0,.69,.31,.69,.69v4.36c0,.38-.31,.69-.69,.69h-.79v-5.73h0Z" transform="translate(41.77 64.7) rotate(-180)"/></g><path class="b" d="M37.12,21.11c-.48-1.38-.58-2.76-.55-4.15,.02-.83-.14-.96-.99-.96-2.37,0-4.74,0-7.11,0-.93,0-1.06,.11-1.04,1.03,.03,1.39-.08,2.76-.53,4.08h10.22Z"/><path class="b" d="M26.9,42.89c.51,1.46,.55,2.94,.52,4.43,0,.54,.34,.69,.83,.69,2.48-.01,4.95,0,7.43,0,.72,0,.87-.16,.9-.87,.03-.89,.02-1.79,.14-2.67,.07-.52,.22-1.03,.36-1.56h-10.17Z"/><path class="b" d="M39.09,22.86h-14.18c-1.13,0-2.05,.92-2.05,2.05v14.18c0,1.13,.92,2.05,2.05,2.05h14.18c1.13,0,2.05-.92,2.05-2.05v-14.18c0-1.13-.92-2.05-2.05-2.05Zm-10.64,10.72c.35,.33,.36,.89,.02,1.24-.17,.18-.4,.27-.63,.27s-.44-.08-.61-.24l-2.3-2.21c-.17-.17-.27-.39-.27-.63s.1-.47,.27-.63l2.3-2.21c.35-.33,.9-.32,1.24,.02,.33,.35,.32,.9-.02,1.24l-1.65,1.58,1.65,1.58Zm5.68-3.33l-2.82,4.43c-.17,.26-.45,.4-.74,.4-.16,0-.32-.04-.47-.14-.41-.26-.53-.8-.27-1.21l2.82-4.43c.26-.41,.8-.53,1.21-.27,.41,.26,.53,.8,.27,1.21Zm4.95,2.37l-2.3,2.21c-.17,.16-.39,.24-.61,.24-.23,0-.46-.09-.63-.27-.33-.35-.32-.9,.02-1.24l1.65-1.58-1.65-1.58c-.35-.33-.36-.89-.02-1.24,.33-.35,.89-.36,1.24-.02l2.3,2.21c.17,.17,.27,.39,.27,.63s-.1,.47-.27,.63Z"/></svg>