<?xml version="1.0" encoding="UTF-8"?><svg id="a" xmlns="http://www.w3.org/2000/svg" viewBox="0 0 64 64"><defs><style>.b{fill:#889092;}</style></defs><path class="b" d="M22.9,16h10.7v2.15c0,.51-.42,.93-.93,.93h-8.84c-.51,0-.93-.42-.93-.93v-2.15h0Z"/><path class="b" d="M36.43,27.06c.38-.83,1.09-1.39,1.92-1.55,.07-.18,.16-.37,.27-.56,.39-.68,1.1-1.11,1.88-1.21v-5.16c0-1.42-1.15-2.58-2.58-2.58h-2.57v2.77c0,1.14-.93,2.07-2.07,2.07h-10.06c-1.14,0-2.07-.93-2.07-2.07v-2.77h-2.57c-1.42,0-2.58,1.15-2.58,2.58v26.84c0,1.42,1.15,2.58,2.58,2.58h14.78c-.17-.36-.28-.77-.25-1.24-.15-.06-.31-.12-.46-.19-1.3-.53-1.94-1.95-1.48-3.29,.03-.1,.07-.19,.11-.28-.47-.68-.61-1.57-.3-2.44,.05-.14,.11-.28,.17-.42,.48-1.18,1.4-1.84,2.49-1.84,.37,0,.76,.08,1.14,.23l1.3,.53,2.99-7.4-1.27-.51c-1.58-.64-2.18-2.07-1.55-3.66,.07-.19,.12-.32,.18-.44Zm-18.11-2.75c0-.47,.38-.85,.85-.85h4.07c.47,0,.85,.38,.85,.85v4.07c0,.47-.38,.85-.85,.85h-4.07c-.47,0-.85-.38-.85-.85v-4.07Zm5.78,12.23c0,.47-.38,.85-.85,.85h-4.07c-.47,0-.85-.38-.85-.85v-4.07c0-.47,.38-.85,.85-.85h4.07c.47,0,.85,.38,.85,.85v4.07Zm9.21-.06h-6.32c-.48,0-.88-.39-.88-.88s.39-.88,.88-.88h6.32c.48,0,.88,.39,.88,.88s-.39,.88-.88,.88Zm-7.21-9.04c0-.48,.39-.88,.88-.88h6.32c.48,0,.88,.39,.88,.88s-.39,.88-.88,.88h-6.32c-.48,0-.88-.39-.88-.88Zm10.38,5.05c0,.48-.39,.88-.88,.88h-8.61c-.48,0-.88-.39-.88-.88s.39-.88,.88-.88h8.61c.48,0,.88,.39,.88,.88Zm-.89-7.29h-8.61c-.48,0-.88-.39-.88-.88s.39-.88,.88-.88h8.61c.48,0,.88,.39,.88,.88s-.39,.88-.88,.88Z"/><path class="b" d="M20.58,28.06c-.13,0-.26-.05-.35-.15l-1.17-1.17c-.2-.19-.2-.51,0-.71s.51-.2,.71,0l.82,.82,2.08-2.08c.2-.2,.51-.2,.71,0s.2,.51,0,.71l-2.44,2.44c-.1,.1-.23,.15-.35,.15Z"/><g><path class="b" d="M38.15,41.79c1.32,.53,2.64,1.06,3.95,1.6,.68,.27,.86,.7,.58,1.39-.05,.13-.1,.25-.15,.38-.22,.48-.68,.69-1.16,.5-2.75-1.1-5.5-2.21-8.25-3.33-.48-.2-.67-.67-.49-1.16,.05-.14,.11-.28,.17-.41,.26-.63,.7-.83,1.33-.57,1.34,.54,2.68,1.08,4.02,1.62Z"/><path class="b" d="M42.41,31.13c-1.32-.53-2.64-1.06-3.95-1.6-.68-.27-.86-.7-.58-1.39,.05-.13,.1-.25,.15-.38,.22-.48,.68-.69,1.16-.5,2.75,1.1,5.5,2.21,8.25,3.33,.48,.2,.67,.67,.49,1.17-.05,.15-.12,.3-.18,.45-.24,.58-.7,.78-1.29,.55-1.35-.54-2.7-1.09-4.06-1.64Z"/><path class="b" d="M40.86,46.12c-.12,.29-.21,.56-.33,.81-.21,.46-.67,.67-1.14,.48-2.03-.81-4.06-1.63-6.08-2.46-.45-.18-.64-.65-.49-1.11,.1-.28,.22-.55,.34-.84l7.7,3.11Z"/><path class="b" d="M47.39,29.93l-7.67-3.1c.14-.33,.24-.69,.42-1,.2-.34,.63-.47,1.01-.31,2.04,.82,4.08,1.64,6.12,2.47,.4,.16,.61,.61,.49,1.01-.09,.32-.24,.61-.37,.94Z"/><path class="b" d="M39.44,41.66l-2.16-.87,3.84-9.51,2.16,.87-3.84,9.51Z"/><path class="b" d="M35.04,46.32l2.16,.87c-.09,.42-.31,.74-.73,.79-.56,.08-1.05-.15-1.43-.55-.3-.33-.24-.73,0-1.12Z"/><path class="b" d="M45.52,26.61l-2.17-.87c.09-.42,.3-.74,.72-.8,.56-.08,1.05,.15,1.43,.54,.31,.33,.24,.73,.01,1.13Z"/></g></svg>