<?xml version="1.0" encoding="UTF-8"?><svg id="a" xmlns="http://www.w3.org/2000/svg" viewBox="0 0 64 64"><defs><style>.b{fill:#889092;}</style></defs><path class="b" d="M23.71,36.34c-.72,0-1.3-.58-1.3-1.3v-11.06c0-.72,.58-1.3,1.3-1.3h16.54v-5.54c0-.63-.51-1.14-1.14-1.14H19.47c-.63,0-1.14,.51-1.14,1.14v26.32c0,.63,.51,1.14,1.14,1.14h19.65c.63,0,1.14-.51,1.14-1.14v-7.12H23.71Z"/><g><path class="b" d="M43.66,22.68v-2.14c0-.63-.51-1.14-1.14-1.14h-.51v3.28h1.65Z"/><path class="b" d="M42.01,36.34v8.18c0,1.01-.82,1.83-1.83,1.83H21.72v.51c0,.63,.51,1.14,1.14,1.14h19.65c.63,0,1.14-.51,1.14-1.14v-10.52h-1.65Z"/></g><g><path class="b" d="M45.05,24.43H24.79c-.34,0-.62,.28-.62,.62v8.92c0,.34,.28,.62,.62,.62h20.27c.34,0,.62-.28,.62-.62v-8.92c0-.34-.28-.62-.62-.62Zm-15.49,7.82h-3.41v-5.49h1.24v4.39h2.18v1.1Zm4.74-1.6c0,.83-.58,1.68-2.13,1.68s-2.13-.85-2.13-1.68v-2.29c0-.83,.58-1.68,2.13-1.68s2.13,.85,2.13,1.68v2.29Zm4.73,1.42c-.6,.17-1.26,.26-1.89,.26-1.33,0-2.01-.68-2.01-1.68v-2.29c0-1.01,.68-1.68,2.01-1.68,.63,0,1.29,.08,1.75,.17l-.15,1.08c-.48-.07-1.21-.13-1.61-.13-.62,0-.77,.32-.77,.75v1.89c0,.43,.16,.78,.77,.78,.25,0,.41,0,.73-.05v-1.68h1.16v2.58Zm2.64,.26c-.63,0-1.3-.14-1.77-.35l.21-.96c.5,.16,1.01,.26,1.58,.26,.63,0,.76-.12,.76-.59,0-.49-.02-.55-.92-.75-1.33-.29-1.52-.55-1.52-1.74,0-1.1,.39-1.53,1.9-1.53,.48,0,1.05,.05,1.66,.18l-.12,1.04c-.63-.11-1.03-.16-1.52-.16-.55,0-.67,.1-.67,.5,0,.53,.02,.54,.89,.74,1.48,.35,1.56,.64,1.56,1.72s-.35,1.62-2.01,1.62Z"/><path class="b" d="M32.18,27.78c-.62,0-.89,.26-.89,.69v2.08c0,.43,.27,.69,.89,.69s.89-.26,.89-.69v-2.08c0-.43-.27-.69-.89-.69Z"/></g></svg>