<?xml version="1.0" encoding="UTF-8"?><svg id="a" xmlns="http://www.w3.org/2000/svg" viewBox="0 0 64 64"><defs><style>.b{fill:#889092;}</style></defs><path class="b" d="M41,32.17c-3.87,0-7,3.13-7,7s3.13,7,7,7,7-3.13,7-7-3.13-7-7-7Zm4.48,4.97l-5.31,5.31c-.16,.16-.39,.26-.62,.26s-.46-.09-.62-.26l-2.42-2.42c-.34-.34-.34-.9,0-1.24,.34-.34,.9-.34,1.24,0l1.8,1.8,4.69-4.69c.34-.34,.9-.34,1.24,0,.34,.34,.34,.9,0,1.24Z"/><path class="b" d="M47.22,17.83H16.78c-.43,0-.78,.35-.78,.78v17.18c0,.43,.35,.78,.78,.78h2.85c.43,0,.78,.35,.78,.78v3.78c0,.65,.75,1.02,1.26,.62l6.47-5.02c.14-.11,.31-.16,.48-.16h4.01c1.11-3.56,4.43-6.16,8.36-6.16,2.86,0,5.4,1.39,7,3.52v-15.33c0-.43-.35-.78-.78-.78Zm-15.22,13.75h-9.81c-.48,0-.88-.39-.88-.88s.39-.88,.88-.88h9.81c.48,0,.88,.39,.88,.88s-.39,.88-.88,.88Zm9.81-4.23H22.19c-.48,0-.88-.39-.88-.88s.39-.88,.88-.88h19.61c.48,0,.88,.39,.88,.88s-.39,.88-.88,.88Zm0-4.23H22.19c-.48,0-.88-.39-.88-.88s.39-.88,.88-.88h19.61c.48,0,.88,.39,.88,.88s-.39,.88-.88,.88Z"/></svg>