<?xml version="1.0" encoding="UTF-8"?><svg id="a" xmlns="http://www.w3.org/2000/svg" viewBox="0 0 64 64"><defs><style>.b{fill:#889092;}</style></defs><path class="b" d="M43.91,16c-.19,.14-.4,.39-.54,.54-1.06,1.17-2.32,2.02-3.83,2.5-2.01,.64-4.07,.55-6.14,.41-2.33-.15-4.66-.39-6.99-.41-2.21-.02-4.22,.67-5.88,2.16l4.51,16.2c2.05-1.77,4.44-2.31,7.02-2.22,1.87,.07,3.74,.28,5.61,.42,2.06,.16,4.12,.26,6.15-.32,1.65-.47,3.03-1.37,4.14-2.68,.01-.01,.02-.03,.03-.05l-4.09-16.57Z"/><path class="b" d="M24.2,48c-.66,0-1.26-.43-1.45-1.1l-6.69-24.01c-.23-.8,.24-1.64,1.04-1.86,.8-.23,1.64,.24,1.86,1.04l6.69,24.01c.23,.8-.24,1.64-1.04,1.86-.14,.04-.28,.06-.41,.06Z"/></svg>