<?xml version="1.0" encoding="UTF-8"?><svg id="a" xmlns="http://www.w3.org/2000/svg" viewBox="0 0 64 64"><defs><style>.b{fill:#323232;}.c{fill:#f48120;}</style></defs><circle class="c" cx="32" cy="32" r="26"/><path class="b" d="M34.02,48c-.57,0-.92-.19-1.12-.61-.52-1.08-1.3-1.59-2.47-1.59-.2,0-.42,.02-.64,.05-.3,.04-.61,.05-.91,.05-.26,0-.51,0-.75-.02-.21,0-.41-.02-.59-.02-.05,.17-.13,.37-.22,.56-.19,.42-.37,.83-.62,1.16-.19,.25-.67,.38-1.06,.39h0c-1.01,0-1.52-.69-1.66-2.16-.02,.07-.1,.08-.17,.08-.49,0-.79-.33-1.04-.66-.51-.66-1.1-1.34-1.84-2.15-.81-.88-.79-1.93,.04-3.14-.89-1.29-.89-1.93,0-3.18-.87-1.31-.89-1.92-.09-3.06-.07-.16-.15-.36-.22-.56-.15-.42-.3-.82-.31-1.22-.02-.51,.16-1,.51-1.38,.4-.43,.97-.69,1.57-.72,.2,0,.4-.01,.61-.01h1.06l-.06-.68v-11.15c0-1,.33-1.58,1.08-1.86,.21-.08,.4-.12,.58-.12,.46,0,.87,.23,1.39,.78,.11,.12,.35,.18,.52,.19,1.71,0,3.13,.44,4.33,1.32,.61,.45,1.31,.67,2.07,.67,.46,0,.96-.08,1.49-.24,.89-.27,1.76-.62,2.57-1.02,.51-.25,1.05-.38,1.61-.38,1.14,0,2.4,.56,3.36,1.5,.17,.16,.24,.33,.23,.48-.02,.19-.17,.37-.47,.55l-.3,.18c-.66,.41-1.34,.83-1.94,1.33-.62,.51-1.08,1.04-1.38,1.56-1.2,2.13-3.07,3.16-5.9,3.27-.41,.02-.83,.02-1.24,.02h-.35c-1.47,0-2.81,.53-4.12,1.63-.13,.11-.18,.32-.24,.57-.03,.13-.07,.27-.11,.41l4.26-.08h.86c.18,0,.36,0,.54,0,1.08,.03,1.9,.52,2.37,1.43,.65,1.23,1.38,2.63,2,4.04,.23,.52,.2,1.19,.16,1.65-.11,1.16,.19,2.17,.97,3.27,1.42,2.01,2.79,4.1,4.12,6.12l.97,1.48c.13,.19,.36,.68,.22,.88-.16,.23-.57,.35-.88,.36-1.48,.01-2.95,.01-4.43,.01-1.44,0-2.89,0-4.33,.01h-.02Zm-8.3-1.2l.03,.02v.04c.2-.07,.39-.28,.39-.53v-2.63l-1,.06,.05,.65c0,.39,0,.76,0,1.13v.79c0,.26,.21,.47,.47,.47h.04Zm5.09-2.18c1.34,0,2.28,.6,2.85,1.83,.11,.11,.17,.15,.23,.19,.13,.08,.27,.17,.4,.17,1.55,.01,3.11,.01,4.69,.01h3.09s-.33-.52-.43-.67c-.39-.58-.77-1.17-1.15-1.76-.89-1.38-1.81-2.8-2.81-4.13-1.23-1.63-1.69-3.18-1.46-4.88,.04-.27-.02-.6-.14-.86-.37-.77-.75-1.53-1.14-2.3-.22-.44-.44-.88-.66-1.32-.32-.65-.83-.96-1.56-.96-.3,0-.56,.01-.82,.02-.32,.01-.65,.03-.97,.03-.43,0-.78-.02-1.11-.07-.26-.04-.5-.06-.74-.06-1.31,0-2.23,.6-2.91,1.89-.23,.44-.55,.83-.86,1.21-.14,.17-.28,.35-.42,.53l.1,.14c.06-.02,.13-.02,.2-.02,.09,0,.19,0,.3,.02,.18,.02,.37,.03,.54,.03,.25,0,.44-.03,.61-.09,.51-.19,.98-.51,1.44-.81,.23-.15,.46-.3,.7-.44l.09-.06c.22-.13,.45-.27,.69-.28,.33-.02,.67-.02,1-.02h1.33c.28,0,.5,.08,.61,.23,.09,.11,.12,.24,.08,.41-.05,.23-.42,.5-.68,.54-.28,.04-.57,.06-.86,.06-.25,0-.5-.02-.75-.05-.07-.01-.13-.02-.19-.02-.46,0-.76,.26-1.08,.54-.11,.09-.22,.19-.33,.27-.04,.03-.07,.2-.04,.26,.44,.9,.31,1.76-.37,2.56l.76,1.69c1-.08,2.1-.19,3-.92,.15-.12,.34-.25,.54-.25,.15,0,.29,.07,.41,.22,.12,.14,.17,.28,.16,.42-.02,.23-.22,.42-.39,.56-.8,.65-1.76,1-2.85,1.04-1.03,.04-1.76,.3-2.16,.79,0,.24,0,.5,.02,.75,.02,.53,.03,1-.15,1.38-.29,.61-.29,1.2-.28,1.82,0,.17,0,.34,0,.51,.16-.04,.33-.05,.52-.05,.11,0,.22,0,.33,0,.29,0,.58,.02,.86,.02,.4,0,.73-.02,1.04-.06,.25-.03,.48-.05,.71-.05Zm-6.86,.16l.07-.12-.02-.94-.84,.05,.79,1.01Zm1.06-2.21c.2,0,.39,0,.58,0,.64-.02,1.07-.41,1.08-.98,0-.58-.42-1-1.05-1.01-.5,0-1.01-.01-1.51-.01s-1.02,0-1.54,.01c-.64,0-1.07,.4-1.08,.98,0,.59,.44,1,1.12,1.01,.19,0,.37,0,.56,0h1.84Zm-2.37-5.19c-.69,0-1.14,.39-1.15,.98,0,.58,.45,1,1.12,1.01,.26,0,.52,0,.77,0h2.42c.26,0,.52,0,.78,0,.68-.01,1.14-.41,1.15-.99,0-.27-.09-.51-.26-.68-.2-.21-.5-.32-.86-.32-.65,0-1.29,0-1.94,0s-1.36,0-2.03,0Zm-.13-3.18c-.6,.02-1.01,.43-1.01,.99,0,.53,.42,.97,.93,.99,.79,.02,1.58,.03,2.37,.03,.66,0,1.33,0,1.99-.03,.37-.01,.66-.18,.81-.46,.17-.33,.12-.76-.13-1.15-.57,.24-1.09,.34-1.56,.34-.52,0-.98-.12-1.4-.36-.52-.3-1.04-.34-1.53-.34-.15,0-.3,0-.45,0Zm1.08-3.2c-.39,0-.77,0-1.15,.02-.53,.02-.94,.43-.95,.97-.01,.52,.38,.95,.91,1.01,.19,.02,.38,.04,.57,.04,.73,0,1.18-.27,1.48-.88,.13-.28,.33-.52,.56-.8,.09-.11,.18-.22,.28-.35h-1.69Zm2.01-13.76c-.23,.04-.39,.24-.39,.46,0,.16,0,11.57,0,11.57,0,.13,.01,.27,.02,.4v.17l.95-.06-.05-.09c0-.09,.01-.18,.01-.26,0,0,0-11.67,0-11.72,0-.27-.21-.48-.47-.48h-.04v-.06l-.04,.07Z"/></svg>