<?xml version="1.0" encoding="UTF-8"?><svg id="a" xmlns="http://www.w3.org/2000/svg" viewBox="0 0 96 96"><defs><style>.b{fill:#b2b6b8;}</style></defs><path class="b" d="M17.35,47.86h13.4l5.81-7.12,6.77,10.86,9.62-19.92,9.12,16.07h16.56c.18-.13,.34-.27,.43-.43,2.58-4.35,3.6-9.02,2.5-14.01-3.25-14.72-20.03-20.75-32.12-11.56-.49,.37-.96,.75-1.39,1.08-1.54-1.02-2.91-2.07-4.4-2.91-7.92-4.44-17.35-3.09-23.8,3.35-6.39,6.39-7.66,15.79-3.26,23.69,.22,.4,.46,.69,.75,.89Z"/><path class="b" d="M59.39,52.37l-6.11-10.77-9.44,19.54-7.79-12.49-3.12,3.82h-12.09c.32,.34,.55,.6,.8,.84,8.12,8.08,16.24,16.15,24.37,24.23,1.52,1.51,2.4,1.51,3.91,0,8.12-8.08,16.24-16.16,24.36-24.24,.26-.26,.5-.53,.88-.94h-15.77Z"/></svg>