<?xml version="1.0" encoding="UTF-8"?><svg id="Layer_1" xmlns="http://www.w3.org/2000/svg" viewBox="0 0 96 96"><defs><style>.cls-1{fill-rule:evenodd;}.cls-1,.cls-2{fill:#b2b6b8;}</style></defs><path class="cls-2" d="M65.46,23.67h-3.14v-7.59c0-1.15-.93-2.08-2.08-2.08h-24.47c-1.15,0-2.08,.93-2.08,2.08v7.59h-3.14c-3.79,0-6.87,3.08-6.87,6.87v34.93c0,3.79,3.08,6.87,6.87,6.87h3.14v7.58c0,1.15,.93,2.08,2.08,2.08h24.47c1.15,0,2.08-.93,2.08-2.08v-7.58h3.14c3.79,0,6.87-3.08,6.87-6.87V30.54c0-3.79-3.08-6.87-6.87-6.87Zm-10.06-5.74c1.12,0,2.03,.91,2.03,2.03s-.91,2.03-2.03,2.03-2.03-.91-2.03-2.03,.91-2.03,2.03-2.03Zm-4.94,0c1.12,0,2.03,.91,2.03,2.03s-.91,2.03-2.03,2.03-2.03-.91-2.03-2.03,.91-2.03,2.03-2.03Zm-4.94,0c1.12,0,2.03,.91,2.03,2.03s-.91,2.03-2.03,2.03-2.03-.91-2.03-2.03,.91-2.03,2.03-2.03Zm-4.94,0c1.12,0,2.03,.91,2.03,2.03s-.91,2.03-2.03,2.03-2.03-.91-2.03-2.03,.91-2.03,2.03-2.03Zm0,60.13c-1.12,0-2.03-.91-2.03-2.03s.91-2.03,2.03-2.03,2.03,.91,2.03,2.03-.91,2.03-2.03,2.03Zm4.94,0c-1.12,0-2.03-.91-2.03-2.03s.91-2.03,2.03-2.03,2.03,.91,2.03,2.03-.91,2.03-2.03,2.03Zm4.94,0c-1.12,0-2.03-.91-2.03-2.03s.91-2.03,2.03-2.03,2.03,.91,2.03,2.03-.91,2.03-2.03,2.03Zm4.94,0c-1.12,0-2.03-.91-2.03-2.03s.91-2.03,2.03-2.03,2.03,.91,2.03,2.03-.91,2.03-2.03,2.03Zm12.42-12.6c0,1.31-1.06,2.37-2.37,2.37H30.54c-1.31,0-2.37-1.06-2.37-2.37V30.54c0-1.31,1.06-2.37,2.37-2.37h34.93c1.31,0,2.37,1.06,2.37,2.37v34.93Z"/><path class="cls-1" d="M55.92,51.34c-.56,1.26,.28,2.73,2.02,2.45,.91-.14,1.6,.77,1.6,1.96s-.77,2.38-1.67,2.59c-.98,.28-1.81-.56-1.81-1.89,0-2.24-1.46-2.94-2.3-2.31-.91,.7-1.95,1.19-3.14,1.4-1.33,.21-2.58,0-3.7-.56-.03,0-.09-.02-.14-.03-.05-.02-.1-.03-.14-.03-1.39-.28-3.07,1.33-3.07,4.05,0,1.75-1.46,3.49-3.35,3.98-2.09,.56-3.84-.56-3.84-2.52s1.81-3.77,3.84-4.05c2.93-.42,4.11-2.38,3.91-3.63,0-.14-.07-.28-.14-.42-.77-1.19-1.19-2.66-1.19-4.26,0-1.75,.49-3.28,1.26-4.47,.14-.14,.21-.28,.21-.42,.28-1.4-1.12-3.07-3.98-3.49-2.09-.28-3.84-2.1-3.84-4.05s1.81-3.07,3.91-2.59c1.88,.49,3.35,2.31,3.35,3.98,0,2.8,1.88,4.19,3.07,4.05,.14,0,.21,0,.35-.07,1.12-.49,2.3-.7,3.56-.49,1.19,.21,2.23,.7,3.14,1.47,1.05,.84,2.3-.07,2.3-2.38,0-1.33,.84-2.24,1.81-1.96,.98,.21,1.67,1.4,1.67,2.59s-.77,2.1-1.67,1.96c-1.74-.28-2.44,1.4-2.02,2.45,.49,1.05,.7,2.17,.7,3.35s-.21,2.31-.7,3.35Zm-9.97-3.28c0,2.87,2.23,4.96,4.67,4.68,2.23-.28,3.84-2.38,3.84-4.68s-1.6-4.4-3.84-4.68c-2.44-.28-4.67,1.82-4.67,4.68Z"/></svg>