<?xml version="1.0" encoding="UTF-8"?><svg id="Layer_1" xmlns="http://www.w3.org/2000/svg" viewBox="0 0 96 96"><defs><style>.cls-1{fill:#b2b6b8;}</style></defs><g><path class="cls-1" d="M34.61,41.24c0-3.75,2.08-7.04,5.19-8.74-.79-1.38-1.25-2.97-1.25-4.67,0-5.21,4.24-9.44,9.44-9.44s9.44,4.24,9.44,9.44c0,1.7-.46,3.29-1.25,4.67,3.11,1.7,5.19,5,5.19,8.74v1.98c2.67-3.1,4.3-7.12,4.3-11.53,0-9.77-7.92-17.68-17.68-17.68s-17.68,7.92-17.68,17.68c0,4.41,1.63,8.44,4.3,11.53v-1.98Z"/><path class="cls-1" d="M45.12,31.83c.13,.1,.27,.18,.41,.26,.1,.06,.21,.12,.31,.17,.17,.08,.34,.15,.51,.21,.08,.03,.15,.05,.23,.07,.92,.27,1.89,.27,2.81,0,.08-.02,.17-.05,.25-.08,.17-.06,.34-.13,.5-.21,.11-.05,.22-.11,.32-.17,.14-.08,.28-.16,.41-.26,1.24-.9,2.06-2.35,2.06-4,0-2.72-2.22-4.94-4.94-4.94s-4.94,2.22-4.94,4.94c0,1.65,.82,3.1,2.06,4Z"/><path class="cls-1" d="M52.8,35.96s-.05,.02-.08,.04c-1.39,.81-3,1.28-4.72,1.28s-3.33-.47-4.73-1.28c-.02-.01-.05-.02-.07-.04-2.38,.61-4.09,2.77-4.09,5.29v5.72c2.61,1.52,5.64,2.41,8.89,2.41s6.27-.89,8.89-2.41v-5.72c0-2.52-1.71-4.67-4.08-5.29Z"/></g><rect class="cls-1" x="23.72" y="55.2" width="30.93" height="4.5"/><rect class="cls-1" x="23.72" y="48.33" width="11.18" height="4.5"/><rect class="cls-1" x="23.72" y="62.07" width="24.86" height="4.5"/><rect class="cls-1" x="57.01" y="55.2" width="15.27" height="4.5"/><path class="cls-1" d="M72.34,73.82h-21.39v-11.75h21.39v11.75Zm-16.89-4.5h12.39v-2.75h-12.39v2.75Z"/><path class="cls-1" d="M79.75,32.18h-9.48c-.03,1.54-.23,3.05-.56,4.5h7.79v40.82H18.5V36.68h7.79c-.33-1.45-.53-2.96-.56-4.5h-9.48c-1.24,0-2.25,1.01-2.25,2.25v45.32c0,1.24,1.01,2.25,2.25,2.25h63.5c1.24,0,2.25-1.01,2.25-2.25V34.43c0-1.24-1.01-2.25-2.25-2.25Z"/></svg>