<?xml version="1.0" encoding="UTF-8"?><svg id="a" xmlns="http://www.w3.org/2000/svg" viewBox="0 0 68 68"><defs><style>.b{fill:#75777e;}</style></defs><path class="b" d="M62.92,10.25H16.69c-.24-4.25-3.76-7.63-8.07-7.63S.53,6.26,.53,10.72V60.82c0,2.51,2.04,4.56,4.56,4.56H62.92c2.51,0,4.56-2.04,4.56-4.56V14.84c0-2.53-2.04-4.58-4.56-4.58Zm-59.39,.46c0-2.81,2.28-5.09,5.09-5.09s5.09,2.28,5.09,5.09V50.25c-1.39-1.13-3.16-1.81-5.09-1.81-.26,0-.52,.01-.78,.04-.08,0-.16,.02-.25,.03-.17,.02-.34,.05-.51,.08-.1,.02-.19,.04-.28,.06-.15,.04-.3,.07-.45,.12-.1,.03-.19,.06-.29,.09-.14,.05-.29,.1-.43,.16-.09,.04-.18,.07-.27,.11-.15,.06-.29,.13-.43,.21-.08,.04-.16,.08-.23,.12-.17,.09-.33,.19-.49,.3-.04,.03-.09,.05-.13,.08-.19,.13-.38,.27-.56,.41V10.72Zm60.95,50.1c0,.87-.68,1.56-1.56,1.56H5.08c-.86,0-1.56-.7-1.56-1.56v-4.28c0-2.81,2.28-5.09,5.09-5.09s5.09,2.28,5.09,5.09c0,.83,.67,1.5,1.5,1.5s1.5-.67,1.5-1.5V13.25H62.92c.86,0,1.56,.71,1.56,1.58V60.82Z"/><path class="b" d="M58.51,53.4H20.91c-.83,0-1.5,.67-1.5,1.5s.67,1.5,1.5,1.5H58.51c.83,0,1.5-.67,1.5-1.5s-.67-1.5-1.5-1.5Z"/><path class="b" d="M20.91,25.01h4.19c.83,0,1.5-.67,1.5-1.5s-.67-1.5-1.5-1.5h-4.19c-.83,0-1.5,.67-1.5,1.5s.67,1.5,1.5,1.5Z"/><path class="b" d="M20.91,32.73h4.19c.83,0,1.5-.67,1.5-1.5s-.67-1.5-1.5-1.5h-4.19c-.83,0-1.5,.67-1.5,1.5s.67,1.5,1.5,1.5Z"/><path class="b" d="M20.91,40.45h4.19c.83,0,1.5-.67,1.5-1.5s-.67-1.5-1.5-1.5h-4.19c-.83,0-1.5,.67-1.5,1.5s.67,1.5,1.5,1.5Z"/><path class="b" d="M20.91,48.18h4.19c.83,0,1.5-.67,1.5-1.5s-.67-1.5-1.5-1.5h-4.19c-.83,0-1.5,.67-1.5,1.5s.67,1.5,1.5,1.5Z"/><path class="b" d="M30.9,31.83h1.48v15.43c0,.83,.67,1.5,1.5,1.5h21.65c.83,0,1.5-.67,1.5-1.5v-15.43h1.48c.65,0,1.23-.42,1.43-1.04s-.02-1.3-.55-1.68l-13.81-9.88c-.52-.37-1.22-.37-1.75,0l-13.81,9.88c-.53,.38-.75,1.06-.55,1.68s.78,1.04,1.43,1.04Zm11.11,13.93v-6.9h5.39v6.9h-5.39Zm12.02,0h-3.63v-8.4c0-.83-.67-1.5-1.5-1.5h-8.39c-.83,0-1.5,.67-1.5,1.5v8.4h-3.63v-13.93h18.65v13.93Zm-9.33-23.47l9.14,6.54h-18.27l9.13-6.54Z"/></svg>