<?xml version="1.0" encoding="UTF-8"?><svg id="Layer_1" xmlns="http://www.w3.org/2000/svg" viewBox="0 0 96 96"><path d="M44.25,28.1l3.97,7.48,23.26-23.26c.43-.43,1.13-.43,1.55,0l10.64,10.64c.43,.43,.43,1.13,0,1.55l-23.26,23.26,7.48,3.97c2.28,1.21,1.56,4.65-1.01,4.85l-26.75,2.03c-1.57,.12-2.89-1.19-2.77-2.77l2.03-26.75c.2-2.58,3.64-3.3,4.85-1.01Z"/><path d="M72.66,41.69v31.72c0,.88-.71,1.59-1.59,1.59H22.59c-.88,0-1.59-.71-1.59-1.59V24.93c0-.88,.71-1.59,1.59-1.59H54.6V14.34H16.15c-2.29,0-4.15,1.86-4.15,4.15v61.37c0,2.29,1.86,4.15,4.15,4.15h61.37c2.29,0,4.15-1.86,4.15-4.15V41.69h-9Z"/></svg>