<svg id="Layer_1" data-name="Layer 1" xmlns="http://www.w3.org/2000/svg" viewBox="0 0 96 96"><rect x="29.1" y="19.44" width="54.9" height="9.42" rx="4.71"/><polygon points="17.74 34.15 17.74 22.64 15.42 23.89 13.01 19.25 18.78 15.92 23.25 15.92 23.25 34.15 17.74 34.15"/><rect x="29.1" y="43.16" width="54.9" height="9.42" rx="4.71"/><path d="M12.35,57.11V52.69l1.06-1.09C14.57,50.41,15,50,16.25,48.55l.6-.68c1.93-2.19,1.93-2.22,1.93-3.42V44a.72.72,0,0,0,0-.15h0a2.86,2.86,0,0,0-1.06-.12,19.12,19.12,0,0,0-4,.46l-1,.25L12,39.53l.81-.21a21.66,21.66,0,0,1,5.07-.68c2.75,0,6.4.51,6.4,4.9v.66c0,2.61-.08,3.27-2.54,6.24-.53.65-1,1.17-1.36,1.62h4.06v5Z"/><rect x="29.1" y="66.89" width="54.9" height="9.42" rx="4.71"/><path d="M17.47,80.08A13.48,13.48,0,0,1,13,79.47l-.73-.24.61-4.54,1,.18a17.41,17.41,0,0,0,3.48.31A2.86,2.86,0,0,0,18.65,75a1.27,1.27,0,0,0,0-.25V73.6c0-.23,0-.41-.92-.41H13.47v-5h3.74c1.15,0,1.15-.13,1.15-.65v-1a1.11,1.11,0,0,0,0-.31s0,0,0,0a7.88,7.88,0,0,0-1.08-.06,17.88,17.88,0,0,0-3.33.34l-1,.17L12.33,62l.84-.18a20.47,20.47,0,0,1,4.4-.47c4.41,0,6.3,1.41,6.3,4.73v1.19a4.9,4.9,0,0,1-1.06,3.24,3.87,3.87,0,0,1,1.36,3.24V75C24.17,78.48,22,80.08,17.47,80.08Z"/></svg>