<?xml version="1.0" encoding="UTF-8"?><svg id="Layer_1" xmlns="http://www.w3.org/2000/svg" viewBox="0 0 64 64"><defs><style>.cls-1{fill:#fff;}.cls-2{fill:#a8a8a8;}</style></defs><circle class="cls-1" cx="32" cy="32" r="26"/><g><path class="cls-2" d="M45.69,18.2c.06,0,.11,.05,.11,.11v6.56c0,.06-.05,.11-.11,.11H18.31c-.06,0-.11-.05-.11-.11v-6.56c0-.06,.05-.11,.11-.11h27.37m0-1.2H18.31c-.72,0-1.31,.59-1.31,1.31v6.56c0,.72,.59,1.31,1.31,1.31h27.37c.72,0,1.31-.59,1.31-1.31v-6.56c0-.72-.59-1.31-1.31-1.31h0Z"/><path class="cls-2" d="M29.39,29.97c.06,0,.11,.05,.11,.11v15.6c0,.06-.05,.11-.11,.11h-11.08c-.06,0-.11-.05-.11-.11v-15.6c0-.06,.05-.11,.11-.11h11.08m0-1.2h-11.08c-.72,0-1.31,.59-1.31,1.31v15.6c0,.72,.59,1.31,1.31,1.31h11.08c.72,0,1.31-.59,1.31-1.31v-15.6c0-.72-.59-1.31-1.31-1.31h0Z"/><path class="cls-2" d="M45.69,29.97c.06,0,.11,.05,.11,.11v5.19c0,.06-.05,.11-.11,.11h-11.08c-.06,0-.11-.05-.11-.11v-5.19c0-.06,.05-.11,.11-.11h11.08m0-1.2h-11.08c-.72,0-1.31,.59-1.31,1.31v5.19c0,.72,.59,1.31,1.31,1.31h11.08c.72,0,1.31-.59,1.31-1.31v-5.19c0-.72-.59-1.31-1.31-1.31h0Z"/><path class="cls-2" d="M45.69,40.38c.06,0,.11,.05,.11,.11v5.19c0,.06-.05,.11-.11,.11h-11.08c-.06,0-.11-.05-.11-.11v-5.19c0-.06,.05-.11,.11-.11h11.08m0-1.2h-11.08c-.72,0-1.31,.59-1.31,1.31v5.19c0,.72,.59,1.31,1.31,1.31h11.08c.72,0,1.31-.59,1.31-1.31v-5.19c0-.72-.59-1.31-1.31-1.31h0Z"/></g></svg>