<?xml version="1.0" encoding="UTF-8"?><svg id="a" xmlns="http://www.w3.org/2000/svg" viewBox="0 0 64 64"><defs><style>.b{fill:#889092;}</style></defs><path class="b" d="M43.12,34.11c-1.64-1.64-4.32-1.64-5.96,0s-1.64,4.32,0,5.96,4.32,1.64,5.96,0,1.64-4.32,0-5.96Zm-2.1,5.11c0,.48-.39,.87-.87,.87-.24,0-.46-.1-.62-.26s-.26-.38-.26-.62v-1.25h-1.25c-.24,0-.46-.1-.62-.26s-.26-.38-.26-.62c0-.48,.39-.87,.87-.87h1.25v-1.25c0-.48,.39-.87,.87-.87,.48,0,.88,.39,.88,.88v1.25h1.25c.48,0,.88,.39,.88,.88,0,.48-.39,.87-.87,.87h-1.25v1.25Z"/><path class="b" d="M47.01,18.41H16.99c-.1,0-.19,.03-.29,.06h0c-.09,.03-.17,.07-.24,.12-.02,.01-.04,.03-.06,.04-.06,.05-.11,.09-.16,.15-.04,.04-.06,.09-.09,.13-.03,.05-.06,.09-.08,.14-.04,.11-.07,.22-.07,.35v25.2c0,.54,.44,.99,.99,.99h30.03c.54,0,.99-.44,.99-.99V19.4c0-.54-.44-.99-.99-.99Zm-21.75,20.97c-1.87,0-3.57-.7-4.87-1.84,.39-1.01,1.26-1.78,2.36-2.02,.2,.13,.4,.23,.62,.32,.09,.04,.19,.07,.28,.1,.15,.05,.3,.1,.46,.14,.13,.03,.27,.06,.41,.08,.13,.02,.27,.03,.4,.04,.12,0,.23,.04,.35,.04s.24-.03,.36-.04c.13,0,.26-.02,.39-.04,.14-.02,.28-.05,.41-.09,.15-.04,.3-.09,.44-.14,.1-.04,.2-.06,.3-.11,.21-.09,.42-.2,.61-.32,1.09,.23,1.97,1.01,2.36,2.02-1.3,1.14-3,1.84-4.87,1.84Zm-2.98-7.86c0-1.64,1.34-2.98,2.98-2.98s2.98,1.34,2.98,2.98c0,.99-.49,1.87-1.24,2.41-.08,.06-.17,.11-.25,.16-.06,.04-.12,.07-.19,.1-.1,.05-.2,.09-.31,.13-.05,.02-.09,.03-.14,.04-.55,.16-1.14,.16-1.7,0-.05-.01-.1-.03-.14-.04-.1-.04-.21-.08-.31-.13-.06-.03-.13-.07-.19-.1-.09-.05-.17-.1-.25-.16-.75-.54-1.24-1.42-1.24-2.41Zm9.1,4.62c-.52-.85-1.28-1.54-2.2-1.97,.51-.76,.81-1.67,.81-2.65,0-2.61-2.12-4.73-4.73-4.73s-4.73,2.12-4.73,4.73c0,.98,.3,1.89,.81,2.65-.92,.42-1.68,1.11-2.2,1.97-.8-1.18-1.27-2.61-1.27-4.14,0-4.08,3.31-7.39,7.39-7.39s7.39,3.31,7.39,7.39c0,1.54-.47,2.96-1.27,4.14Zm14.72,5.9c0,.56-.46,1.02-1.02,1.02h-9.89c-.56,0-1.02-.46-1.02-1.02v-9.89c0-.56,.46-1.02,1.02-1.02h9.89c.56,0,1.02,.46,1.02,1.02v9.89Zm-11.92-14.16c0-.48,.38-.88,.85-.88h10.2c.47,0,.85,.39,.85,.88s-.38,.88-.85,.88h-10.2c-.47,0-.85-.39-.85-.88Zm11.93-3.94c0,.38-.31,.68-.68,.68h-10.57c-.38,0-.68-.31-.68-.68v-2.32c0-.38,.31-.68,.68-.68h10.57c.38,0,.68,.31,.68,.68v2.32Z"/></svg>