<?xml version="1.0" encoding="UTF-8"?><svg id="a" xmlns="http://www.w3.org/2000/svg" viewBox="0 0 64 64"><defs><style>.b{fill:#889092;}</style></defs><path class="b" d="M40.3,26.7c.1,.07,.21,.13,.31,.2,.09,.05,.17,.1,.27,.14,.13,.06,.26,.12,.39,.16,.06,.02,.13,.04,.19,.06,.36,.1,.73,.16,1.1,.16,.37,0,.74-.05,1.1-.16,.07-.02,.13-.04,.19-.06,.13-.05,.26-.1,.39-.16,.09-.04,.18-.09,.27-.14,.11-.06,.21-.12,.31-.2,.98-.71,1.63-1.86,1.63-3.16,0-2.15-1.75-3.9-3.9-3.9-2.15,0-3.9,1.75-3.9,3.9,0,1.3,.65,2.45,1.63,3.16Z"/><path class="b" d="M42.57,35.93c-2.32,0-4.21,1.89-4.21,4.21s1.89,4.21,4.21,4.21,4.21-1.89,4.21-4.21-1.89-4.21-4.21-4.21Zm2.12,5.1c.34,.34,.34,.9,0,1.24-.17,.17-.4,.26-.62,.26s-.45-.09-.62-.26l-.88-.88-.88,.88c-.17,.17-.4,.26-.62,.26s-.45-.09-.62-.26c-.34-.34-.34-.9,0-1.24l.88-.88-.88-.88c-.34-.34-.34-.9,0-1.24,.34-.34,.9-.34,1.24,0l.88,.88,.88-.88c.34-.34,.9-.34,1.24,0,.34,.34,.34,.9,0,1.24l-.88,.88,.88,.88Z"/><path class="b" d="M45.83,28.14c-.14,.1-.28,.18-.42,.27-.11,.07-.24,.14-.37,.2-.21,.1-.39,.18-.59,.24-.06,.02-.14,.05-.22,.07-.58,.17-1.11,.24-1.65,.24s-1.08-.08-1.59-.23c-.13-.04-.22-.06-.3-.1-.17-.06-.37-.14-.55-.23-.15-.07-.27-.14-.4-.22-.13-.08-.27-.16-.41-.26-1.28,.55-2.17,1.81-2.17,3.27v5.56c0,.16,.13,.3,.3,.3h.53c.96-1.54,2.66-2.56,4.6-2.56s3.64,1.03,4.6,2.56h.53c.16,0,.3-.13,.3-.3v-5.56c0-1.46-.89-2.72-2.17-3.27Z"/><path class="b" d="M42.27,17.91v-.81c0-.61-.49-1.1-1.1-1.1H17.1c-.61,0-1.1,.49-1.1,1.1v29.81c0,.61,.49,1.1,1.1,1.1h24.08c.61,0,1.1-.49,1.1-1.1v-.81c-3.15-.16-5.66-2.76-5.66-5.95,0-.43,.05-.85,.13-1.25-.78-.29-1.35-1.03-1.35-1.91v-5.56c0-1.93,1.03-3.65,2.61-4.58-.69-.95-1.08-2.1-1.08-3.29,0-3.01,2.37-5.47,5.34-5.63Zm-9.54,25.96c0,.44-.36,.8-.8,.8h-11.83c-.44,0-.8-.36-.8-.8v-8.4c0-.44,.36-.8,.8-.8h11.83c.44,0,.8,.36,.8,.8v8.4Zm-.88-12.07h-11.67c-.48,0-.88-.39-.88-.88s.39-.88,.88-.88h11.67c.48,0,.88,.39,.88,.88s-.39,.88-.88,.88Zm0-3.67h-11.67c-.48,0-.88-.39-.88-.88s.39-.88,.88-.88h11.67c.48,0,.88,.39,.88,.88s-.39,.88-.88,.88Zm1.9-3.67h-13.58c-.48,0-.88-.39-.88-.88s.39-.88,.88-.88h13.58c.48,0,.88,.39,.88,.88s-.39,.88-.88,.88Zm.79-3.47h-14.37c-.48,0-.88-.39-.88-.88s.39-.88,.88-.88h14.37c.48,0,.88,.39,.88,.88s-.39,.88-.88,.88Z"/></svg>