<?xml version="1.0" encoding="UTF-8"?><svg id="a" xmlns="http://www.w3.org/2000/svg" viewBox="0 0 64 64"><defs><style>.b{fill:#889092;}</style></defs><circle class="b" cx="28.2" cy="21.44" r="5.44"/><path class="b" d="M28.48,41c0-4.59,3.56-8.36,8.06-8.72-.36-2.38-2.16-4.27-4.48-4.79-1.12,.72-2.44,1.14-3.87,1.14s-2.75-.42-3.87-1.14c-2.6,.59-4.56,2.89-4.56,5.67v6.58c0,.7,.56,1.26,1.26,1.26h7.45Z"/><path class="b" d="M37.23,34c-3.87,0-7,3.13-7,7s3.13,7,7,7,7-3.13,7-7-3.13-7-7-7Zm3.54,9.3c.34,.34,.34,.9,0,1.24-.17,.17-.4,.26-.62,.26s-.45-.09-.62-.26l-2.3-2.3-2.3,2.3c-.17,.17-.4,.26-.62,.26s-.45-.09-.62-.26c-.34-.34-.34-.9,0-1.24l2.3-2.3-2.3-2.3c-.34-.34-.34-.9,0-1.24,.34-.34,.9-.34,1.24,0l2.3,2.3,2.3-2.3c.34-.34,.9-.34,1.24,0,.34,.34,.34,.9,0,1.24l-2.3,2.3,2.3,2.3Z"/></svg>