<?xml version="1.0" encoding="UTF-8"?><svg id="a" xmlns="http://www.w3.org/2000/svg" viewBox="0 0 64 64"><defs><style>.b{fill:#fff;}.c{fill:#a8a8a8;}</style></defs><circle class="b" cx="32" cy="32" r="26"/><path class="c" d="M43.75,22.38h-5.67l.22-.26h0l1.3-1.5h0c.28-.33,.42-.75,.39-1.18-.03-.44-.23-.83-.56-1.12l-2.22-1.92c-.32-.28-.73-.42-1.17-.39-.44,.03-.84,.23-1.12,.56l-1.3,1.49h0l-3.75,4.32h-9.63c-1.5,0-2.72,1.22-2.72,2.71v13.41c0,1.5,1.22,2.72,2.72,2.72h9.59l-.61,2.48h-1.57c-1.16,0-2.11,.95-2.11,2.11v.98h-1.97c-.33,0-.6,.27-.6,.6s.27,.6,.6,.6h16.84c.33,0,.6-.27,.6-.6s-.27-.6-.6-.6h-1.97v-.98c0-1.16-.94-2.11-2.11-2.11h-1.57l-.61-2.48h9.59c1.5,0,2.71-1.22,2.71-2.72v-13.41c0-1.5-1.22-2.71-2.71-2.71Zm-3.7,10.01v1.6h-.82v-.71h-1.2v.71h-.52v-.71h-1.2v.71h-.82v-1.6h-1.2v1.6h-.82v-.71h-1.2v.71h-.52v-.71h-1.2v.71h-.82v-1.6h-1.2v1.6h-.82v-.71h-1.2v.71h-.52v-.71h-1.2v.71h-.82v-1.6h-1.2v1.6h-.76c-.16,0-.29-.13-.29-.29v-4.39c0-.16,.13-.29,.29-.29h3.57l-.55,2.91c-.04,.21,.04,.43,.2,.57,.07,.06,.16,.1,.25,.12,.02,0,.04,0,.07,.01,.03,0,.05,.01,.08,.01,.07,0,.13-.01,.2-.03l4.71-1.62s.01-.01,.02-.01c.01,0,.03,0,.04-.01,.07-.03,.14-.08,.2-.15l1.56-1.8h9.68c.17,0,.3,.13,.3,.29v4.39c0,.16-.13,.29-.3,.29h-.75v-1.6h-1.2Zm-5.9-13.09l1.88,1.63,.98,.85-5.4,6.23s-.01,0-.02,.01l-1.34,1.55-2.87-2.48,3.23-3.72h0l3.53-4.07Zm-7.26,9.23l.04-.24,2.2,1.9-2.74,.94,.5-2.61h0Zm8.96-11.18c.08-.09,.18-.14,.3-.15,.11,0,.21,.03,.3,.1l2.23,1.92c.08,.07,.13,.18,.14,.29,0,.12-.03,.23-.11,.32l-.91,1.05-2.86-2.48,.91-1.04Zm-15.59,6.23h8.59l-2.76,3.18h0c-.06,.08-.1,.16-.12,.25,0,.01-.01,.02-.01,.03l-.15,.77h-3.8c-.82,0-1.49,.67-1.49,1.49v4.39c0,.82,.67,1.49,1.49,1.49h20c.83,0,1.5-.67,1.5-1.49v-4.39c0-.82-.67-1.49-1.5-1.49h-8.63l3.68-4.24h6.71c.83,0,1.51,.68,1.51,1.51v11.35H18.73v-11.35c0-.83,.68-1.51,1.52-1.51Zm17,22.24v.98h-10.5v-.98c0-.5,.41-.91,.91-.91h8.69c.5,0,.91,.41,.91,.91Zm-3.72-2.11h-3.06l.61-2.48h1.84l.61,2.48Zm10.22-3.68h-10.34s-.02,0-.02,0h-2.78s-.02,0-.02,0h-10.33c-.84,0-1.52-.68-1.52-1.52v-.86h26.53v.86c0,.84-.68,1.52-1.51,1.52Z"/></svg>