<svg id="Layer_1" data-name="Layer 1" xmlns="http://www.w3.org/2000/svg" viewBox="0 0 96 96"><path d="M35.28,49.38v22.3c0,3.68.21,6,.61,6.91A5.52,5.52,0,0,0,38.28,81a9.57,9.57,0,0,0,4.81,1h2.39v2H7.83V82h2.39a10,10,0,0,0,5-1.11,4.82,4.82,0,0,0,2.13-2.55Q18,77.1,18,71.68V24.32c0-3.68-.19-6-.58-6.91A5.3,5.3,0,0,0,15,15a9.5,9.5,0,0,0-4.8-1H7.83V12H45.48v2H43.09A10,10,0,0,0,38,15.08a5.06,5.06,0,0,0-2.17,2.55q-.59,1.28-.59,6.69V44.71H60.72V24.32c0-3.68-.2-6-.59-6.91A5.26,5.26,0,0,0,57.74,15a9.67,9.67,0,0,0-4.83-1H50.57V12h37.6v2H85.83a9.8,9.8,0,0,0-5,1.12,5.07,5.07,0,0,0-2.18,2.55Q78,18.91,78,24.32V71.68c0,3.68.19,6,.58,6.91A5.26,5.26,0,0,0,81,81a9.68,9.68,0,0,0,4.83,1h2.34v2H50.57V82h2.34a9.78,9.78,0,0,0,5-1.11,5.07,5.07,0,0,0,2.18-2.55q.59-1.28.59-6.69V49.38Z"/></svg>