<?xml version="1.0" encoding="UTF-8"?><svg id="a" xmlns="http://www.w3.org/2000/svg" viewBox="0 0 20 20"><defs><style>.b{fill:#333;fill-rule:evenodd;}</style></defs><path class="b" d="M6.79,2.68c-.75,.52-1.36,1.21-1.78,2.01-.42,.8-.64,1.7-.64,2.61,0,2,1.04,3.75,2.61,4.75,.65,.41,1.16,1.15,1.13,2.05h0l-.2,4.18c0,.12-.03,.25-.08,.36-.05,.11-.13,.22-.22,.3-.09,.08-.2,.15-.32,.19-.12,.04-.24,.06-.37,.06-.12,0-.25-.04-.36-.09-.11-.05-.21-.13-.3-.22-.08-.09-.15-.2-.19-.32-.04-.12-.06-.24-.05-.37l.2-4.16c0-.11-.06-.27-.26-.39-1.07-.68-1.95-1.61-2.56-2.72-.61-1.11-.93-2.35-.93-3.62,0-1.21,.29-2.4,.85-3.47,.56-1.07,1.37-1.99,2.36-2.68,.3-.22,.66-.34,1.04-.35,.37,0,.74,.1,1.05,.3,.58,.37,.95,1.03,.95,1.78v3.53c0,.1,.05,.2,.14,.26l.94,.64c.05,.03,.11,.05,.18,.05s.12-.02,.18-.05l.94-.64s.08-.07,.1-.11c.02-.05,.04-.1,.04-.15V2.88c0-.74,.37-1.41,.95-1.78,.31-.2,.68-.31,1.05-.3,.37,0,.73,.13,1.04,.35,.99,.69,1.8,1.61,2.36,2.68,.56,1.07,.85,2.26,.85,3.47,0,1.26-.32,2.51-.93,3.62s-1.49,2.04-2.56,2.72c-.2,.13-.26,.29-.26,.39l.2,4.16c0,.12,0,.25-.05,.37-.04,.12-.1,.23-.19,.32-.08,.09-.18,.17-.3,.22-.11,.05-.23,.08-.36,.09s-.25-.01-.37-.05c-.12-.04-.22-.11-.32-.19-.09-.08-.17-.19-.22-.3-.05-.11-.08-.24-.09-.36l-.2-4.18c-.03-.9,.48-1.64,1.13-2.05,.8-.51,1.46-1.21,1.92-2.04,.46-.83,.7-1.76,.7-2.71,0-.91-.22-1.8-.64-2.61-.42-.8-1.03-1.5-1.78-2.01-.03,.02-.08,.08-.08,.2v3.52c0,.36-.09,.71-.25,1.02-.17,.32-.41,.59-.7,.79l-.94,.64c-.36,.25-.79,.38-1.23,.38s-.87-.13-1.23-.38l-.94-.64c-.3-.2-.54-.47-.7-.79-.17-.32-.25-.67-.25-1.02V2.88c0-.12-.05-.18-.08-.2Z"/></svg>