<svg id="Layer_1" data-name="Layer 1" xmlns="http://www.w3.org/2000/svg" viewBox="0 0 96 96"><path d="M84,43H58c-1.88-1.1-4-2.21-6.27-3.35a107.68,107.68,0,0,1-11-5.93A17.23,17.23,0,0,1,36,29a7.76,7.76,0,0,1-1.07-4.06,8.43,8.43,0,0,1,3-6.37,11.71,11.71,0,0,1,8.2-2.76q6.69,0,12.45,5.25a23.52,23.52,0,0,1,7.24,13.87h2.08L67.31,12H65.79a9.33,9.33,0,0,1-1.43,3.91,2.7,2.7,0,0,1-2.08.81,13.67,13.67,0,0,1-4.79-1.65,33,33,0,0,0-5.81-2.26,26,26,0,0,0-6.5-.81A21.15,21.15,0,0,0,30,17.78a18.72,18.72,0,0,0-6,14,18,18,0,0,0,2.21,8.83A21,21,0,0,0,27.67,43H12V53H40.63c1.61.87,3.37,1.78,5.32,2.74a59.72,59.72,0,0,1,9.33,5.35,15,15,0,0,1,3.93,4.34,9.36,9.36,0,0,1,1.3,4.72,9.49,9.49,0,0,1-3.38,7.2q-3.37,3.11-9.05,3.1-7.36,0-13.73-5.76T25.75,58H23.87V84h1.88a7.06,7.06,0,0,1,2.39-3.1,5,5,0,0,1,2.79-1,11.17,11.17,0,0,1,4,1,45.82,45.82,0,0,0,7.25,2.49,27.52,27.52,0,0,0,6.14.66q10.35,0,17.07-6.22a19.5,19.5,0,0,0,6.73-14.84A19,19,0,0,0,69.42,53H84Z"/></svg>