<?xml version="1.0" encoding="UTF-8"?><svg id="Layer_1" xmlns="http://www.w3.org/2000/svg" viewBox="0 0 96 96"><defs><style>.cls-1{fill:#b2b6b8;}</style></defs><path class="cls-1" d="M61,21h-26c-1.24,0-2.25,1.01-2.25,2.25v7.39c0,1.24,1.01,2.25,2.25,2.25h26c1.24,0,2.25-1.01,2.25-2.25v-7.39c0-1.24-1.01-2.25-2.25-2.25Zm-2.25,7.39h-21.5v-2.89h21.5v2.89Z"/><path class="cls-1" d="M59.06,41.26c-1.1,0-2,.9-2,2v9.47c0,1.1,.9,2,2,2s2-.9,2-2v-9.47c0-1.1-.9-2-2-2Z"/><path class="cls-1" d="M79.75,77.5h-9.5V16.25c0-1.24-1.01-2.25-2.25-2.25H28c-1.24,0-2.25,1.01-2.25,2.25v61.25h-9.5c-1.24,0-2.25,1.01-2.25,2.25s1.01,2.25,2.25,2.25h63.5c1.24,0,2.25-1.01,2.25-2.25s-1.01-2.25-2.25-2.25Zm-49.5,0V18.5h35.5v59H30.25Z"/></svg>