<?xml version="1.0" encoding="UTF-8"?><svg id="Layer_1" xmlns="http://www.w3.org/2000/svg" viewBox="0 0 24 24"><defs><style>.cls-1{fill:#b2b6b8;}</style></defs><g><path class="cls-1" d="M13.25,20.92l-1.5,.08c-.27,.01-.48-.21-.45-.48l.16-1.49c.02-.2,.11-.39,.26-.53l4.91-4.66,2.07,2.18-4.91,4.66c-.15,.14-.34,.22-.54,.23Z"/><path class="cls-1" d="M18.09,12.21h2.26c.21,0,.37,.17,.37,.37v2.11h-3v-2.11c0-.21,.17-.37,.37-.37Z" transform="translate(15.74 -9.75) rotate(46.48)"/></g><path class="cls-1" d="M13.8,14.08H7.21c-.55,0-1-.45-1-1s.45-1,1-1h6.59c.55,0,1,.45,1,1s-.45,1-1,1Z"/><path class="cls-1" d="M10.64,17.24h-3.43c-.55,0-1-.45-1-1s.45-1,1-1h3.43c.55,0,1,.45,1,1s-.45,1-1,1Z"/><path class="cls-1" d="M9.46,19H5V5h5.45v4.56c0,.55,.45,1,1,1h4.56v1.11l.7-.66h0s1.3-1.27,1.3-1.27v-.18s-.01-.04-.01-.06c0-.09-.02-.17-.05-.26-.01-.03-.02-.06-.03-.09-.05-.11-.11-.21-.2-.29L12.15,3.29s-.02-.01-.03-.02c-.08-.07-.16-.13-.26-.17-.04-.02-.08-.03-.13-.05-.07-.02-.13-.03-.2-.04-.03,0-.06-.02-.09-.02H4c-.55,0-1,.45-1,1V20c0,.55,.45,1,1,1h5.32l.14-2Zm2.99-12.58l2.14,2.14h-2.14v-2.14Z"/></svg>