<?xml version="1.0" encoding="UTF-8"?><svg id="a" xmlns="http://www.w3.org/2000/svg" viewBox="0 0 64 64"><defs><style>.b{fill:#889092;}</style></defs><path class="b" d="M36.05,31.69c-2.73,2.73-2.73,7.17,0,9.9s7.17,2.73,9.9,0,2.73-7.17,0-9.9-7.17-2.73-9.9,0Zm9.08,4.07c.48,0,.87,.39,.87,.87,0,.24-.1,.46-.26,.62s-.38,.26-.62,.26h-3.26v3.26c0,.24-.1,.46-.26,.62s-.38,.26-.62,.26c-.48,0-.87-.39-.87-.87v-3.26h-3.26c-.48,0-.87-.39-.87-.87,0-.48,.39-.88,.88-.88h3.26v-3.26c0-.48,.39-.88,.88-.88,.48,0,.87,.39,.87,.87v3.26h3.26Z"/><rect class="b" x="20.44" y="28.95" width="1.42" height="2.6"/><path class="b" d="M16,21.46v8.99c0,.61,.49,1.1,1.1,1.1h16.81c.27-.38,.57-.75,.91-1.09,1.53-1.53,3.54-2.42,5.68-2.54v-.82l-1.03,.66c-.1,.07-.22,.1-.34,.1-.21,0-.41-.1-.53-.29-.19-.29-.1-.68,.19-.86l1.18-.76-1.18-.76c-.29-.19-.37-.57-.19-.86,.19-.29,.57-.37,.86-.19l1.03,.66v-1.22c0-.35,.28-.62,.62-.62s.62,.28,.62,.62v1.22l1.03-.66c.29-.19,.68-.1,.86,.19,.19,.29,.1,.68-.19,.86l-1.18,.76,1.18,.76c.29,.19,.37,.57,.19,.86-.12,.19-.32,.29-.53,.29-.12,0-.23-.03-.34-.1l-1.03-.66v.85c1.54,.13,3,.64,4.25,1.52v-8.01c0-.61-.49-1.1-1.1-1.1H17.1c-.61,0-1.1,.49-1.1,1.1Zm7.21,5.25c.29,.19,.37,.57,.19,.86-.12,.19-.32,.29-.53,.29-.12,0-.23-.03-.34-.1l-1.03-.66v1.22c0,.35-.28,.62-.62,.62s-.62-.28-.62-.62v-1.22l-1.03,.66c-.1,.07-.22,.1-.34,.1-.21,0-.41-.1-.53-.29-.19-.29-.1-.68,.19-.86l1.18-.76-1.18-.76c-.29-.19-.37-.57-.19-.86,.19-.29,.58-.37,.86-.19l1.03,.66v-1.22c0-.35,.28-.62,.62-.62s.62,.28,.62,.62v1.22l1.03-.66c.29-.19,.68-.1,.86,.19,.19,.29,.1,.68-.19,.86l-1.18,.76,1.18,.76Zm6.75,0c.29,.19,.37,.57,.19,.86-.12,.19-.32,.29-.53,.29-.12,0-.23-.03-.34-.1l-1.03-.66v1.22c0,.35-.28,.62-.62,.62s-.62-.28-.62-.62v-1.22l-1.03,.66c-.1,.07-.22,.1-.34,.1-.21,0-.41-.1-.53-.29-.19-.29-.1-.68,.19-.86l1.18-.76-1.18-.76c-.29-.19-.37-.57-.19-.86,.19-.29,.58-.37,.86-.19l1.03,.66v-1.22c0-.35,.28-.62,.62-.62s.62,.28,.62,.62v1.22l1.03-.66c.29-.19,.68-.1,.86,.19,.19,.29,.1,.68-.19,.86l-1.18,.76,1.18,.76Zm6.75,0c.29,.19,.37,.57,.19,.86-.12,.19-.32,.29-.53,.29-.12,0-.23-.03-.34-.1l-1.03-.66v1.22c0,.35-.28,.62-.62,.62s-.62-.28-.62-.62v-1.22l-1.03,.66c-.1,.07-.22,.1-.34,.1-.21,0-.41-.1-.53-.29-.19-.29-.1-.68,.19-.86l1.18-.76-1.18-.76c-.29-.19-.37-.57-.19-.86,.19-.29,.58-.37,.86-.19l1.03,.66v-1.22c0-.35,.28-.62,.62-.62s.62,.28,.62,.62v1.22l1.03-.66c.29-.19,.68-.1,.86,.19,.19,.29,.1,.68-.19,.86l-1.18,.76,1.18,.76Z"/></svg>