<?xml version="1.0" encoding="UTF-8"?><svg id="a" xmlns="http://www.w3.org/2000/svg" viewBox="0 0 64 64"><defs><style>.b{fill:#889092;}</style></defs><path class="b" d="M44.31,47.99h-.5c-.14-.08-.29-.16-.43-.23-3.69-1.84-7.39-3.69-11.08-5.54-.23-.11-.38-.11-.6,0-1.18,.6-2.36,1.19-3.54,1.78-2.65,1.33-5.31,2.66-7.97,3.99h-.5c-.53-.26-.68-.69-.68-1.27,0-9.84,0-19.69,0-29.52,0-.88,.33-1.21,1.2-1.21h23.59c.88,0,1.2,.33,1.2,1.21,0,9.84,0,19.69,0,29.52,0,.57-.17,1-.7,1.26Zm-5.36-20.61c0-.58-.34-.92-.99-1.01-1.07-.15-2.15-.31-3.21-.46-.19-.03-.31-.11-.39-.29-.48-.99-.97-1.96-1.44-2.94-.18-.38-.45-.65-.9-.66-.46,0-.74,.26-.94,.66-.46,.95-.94,1.9-1.39,2.86-.12,.25-.27,.35-.53,.38-1.06,.14-2.12,.3-3.18,.45-.43,.06-.76,.24-.88,.68-.13,.41,.03,.74,.33,1.04,.76,.73,1.5,1.48,2.27,2.2,.23,.22,.3,.42,.23,.73-.2,1.04-.36,2.07-.54,3.11-.08,.43,0,.79,.37,1.05,.37,.26,.73,.19,1.12,0,.96-.52,1.94-1.02,2.9-1.53,.18-.09,.31-.1,.49,0,1,.53,2,1.06,3.01,1.59,.35,.18,.71,.18,1.03-.07,.31-.23,.43-.55,.36-.94-.18-1.07-.35-2.14-.55-3.2-.06-.32,0-.52,.23-.73,.76-.71,1.49-1.45,2.25-2.17,.22-.23,.4-.47,.38-.75Z"/></svg>