<?xml version="1.0" encoding="UTF-8"?><svg id="a" xmlns="http://www.w3.org/2000/svg" viewBox="0 0 64 64"><defs><style>.b{fill:#889092;}</style></defs><circle class="b" cx="27.86" cy="21.44" r="5.44"/><path class="b" d="M44.39,46.06l-6.38-11.05c-.5-.86-1.74-.86-2.24,0l-6.38,11.05c-.5,.86,.12,1.94,1.12,1.94h12.76c.99,0,1.62-1.08,1.12-1.94Zm-6.64-.18h-1.73v-1.99h1.73v1.99Zm0-4.86l-.36,2.09h-1.01l-.36-2.09v-3.37h1.73v3.37Z"/><path class="b" d="M34.26,34.13c.43-.75,1.14-1.25,1.96-1.43-.26-2.56-2.17-4.62-4.65-5.11-1.08,.66-2.35,1.04-3.71,1.04s-2.63-.39-3.71-1.04c-2.68,.53-4.71,2.86-4.71,5.7v6.46c0,.7,.56,1.26,1.26,1.26h9.59l3.97-6.88Z"/></svg>