<svg width="52" height="52" viewBox="0 0 52 52" fill="none" xmlns="http://www.w3.org/2000/svg">
<path fill-rule="evenodd" clip-rule="evenodd" d="M16.42 7.43597C16.42 5.88702 17.6738 4.6333 19.2227 4.6333H32.7774C34.3263 4.6333 35.58 5.88701 35.58 7.43597V11.7873C38.1763 11.9712 40.2253 14.1356 40.2253 16.7787V35.2213C40.2253 37.8643 38.1763 40.0288 35.58 40.2127V44.5553C35.58 46.1043 34.3263 47.358 32.7774 47.358H19.2314C17.6824 47.358 16.4287 46.1043 16.4287 44.5553V40.2133C13.8284 40.0336 11.7747 37.8673 11.7747 35.2213V16.7787C11.7747 14.1356 13.8238 11.9712 16.42 11.7873V7.43597ZM19.2227 6.6333C18.7783 6.6333 18.42 6.99159 18.42 7.43597V11.766H33.58V7.43597C33.58 6.99159 33.2218 6.6333 32.7774 6.6333H19.2227ZM16.7787 13.7747C15.1196 13.7747 13.7747 15.1196 13.7747 16.7787V35.2213C13.7747 36.8804 15.1196 38.2253 16.7787 38.2253H35.2213C36.8804 38.2253 38.2253 36.8804 38.2253 35.2213V16.7787C38.2253 15.1196 36.8804 13.7747 35.2213 13.7747H16.7787ZM18.4287 44.5553V40.2253H33.58V44.5553C33.58 44.9997 33.2218 45.358 32.7774 45.358H19.2314C18.787 45.358 18.4287 44.9997 18.4287 44.5553Z" fill="#D7D6D7"/>
<path fill-rule="evenodd" clip-rule="evenodd" d="M31.0943 28.3541C30.7202 29.1975 31.2813 30.1816 32.4505 29.9942C33.0584 29.9004 33.5261 30.5096 33.5261 31.3062C33.5261 32.1028 33.0117 32.8995 32.4037 33.04C31.749 33.2275 31.1878 32.6652 31.1878 31.7748C31.1878 30.2753 30.2057 29.8067 29.6446 30.2284C29.0366 30.697 28.3351 31.0251 27.5401 31.1656C26.6516 31.3062 25.8098 31.1656 25.0616 30.7908C25.0382 30.7908 25.0031 30.7791 24.968 30.7673C24.933 30.7556 24.8979 30.7439 24.8745 30.7439C23.9392 30.5565 22.8168 31.6342 22.8168 33.4618C22.8168 34.6333 21.8348 35.8048 20.5721 36.1328C19.1691 36.5077 18 35.7579 18 34.4458C18 33.1338 19.2159 31.9154 20.5721 31.728C22.5362 31.4468 23.3312 30.1347 23.1909 29.2913C23.1909 29.1975 23.1442 29.1038 23.0974 29.0101C22.583 28.2135 22.3024 27.2294 22.3024 26.1516C22.3024 24.9802 22.6298 23.9492 23.1442 23.1526C23.2377 23.0589 23.2845 22.9652 23.2845 22.8715C23.4715 21.9343 22.5362 20.8096 20.6189 20.5285C19.2159 20.341 18.0468 19.1227 18.0468 17.8106C18.0468 16.4985 19.2627 15.7488 20.6656 16.0768C21.9283 16.4048 22.9104 17.6232 22.9104 18.7478C22.9104 20.6222 24.173 21.5594 24.968 21.4657C25.0616 21.4657 25.1083 21.4657 25.2019 21.4188C25.9501 21.0908 26.7451 20.9502 27.5869 21.0908C28.3819 21.2314 29.0834 21.5594 29.6913 22.0748C30.3928 22.6372 31.2346 22.028 31.2346 20.4816C31.2346 19.5913 31.7958 18.9821 32.4505 19.1695C33.1052 19.3101 33.5728 20.1067 33.5728 20.9034C33.5728 21.7 33.0584 22.3091 32.4505 22.2154C31.2813 22.028 30.8137 23.1526 31.0943 23.8555C31.4216 24.5584 31.5619 25.3082 31.5619 26.1048C31.5619 26.9014 31.4216 27.6512 31.0943 28.3541ZM24.4076 26.1517C24.4076 28.0729 25.9041 29.4787 27.5409 29.2913C29.0374 29.1038 30.113 27.698 30.113 26.1517C30.113 24.6053 29.0374 23.1995 27.5409 23.0121C25.9041 22.8246 24.4076 24.2304 24.4076 26.1517Z" fill="#D7D6D7"/>
</svg>
