<?xml version="1.0" encoding="UTF-8"?><svg id="Layer_1" xmlns="http://www.w3.org/2000/svg" viewBox="0 0 60 60"><defs><style>.cls-1{fill:#231f20;}</style></defs><path class="cls-1" d="M30,53.41c-.25,0-.51-.1-.7-.29-.19-.18-.38-.36-.57-.54l-.2-.19c-1.13-1.07-2.27-2.14-3.41-3.22-1.92-1.81-3.84-3.62-5.75-5.44-.82-.78-1.67-1.56-2.52-2.34-3.13-2.86-6.36-5.82-8.6-9.38-2.91-4.61-3.58-10.69-1.74-15.86,1.54-4.35,4.69-7.52,8.87-8.94,5.26-1.78,10.88,.46,14.62,3.31,3.74-2.85,9.36-5.09,14.62-3.31,4.17,1.41,7.32,4.59,8.87,8.94,1.83,5.17,1.17,11.25-1.74,15.86-2.25,3.56-5.48,6.52-8.6,9.38-.86,.79-1.71,1.56-2.52,2.34-1.91,1.82-3.83,3.64-5.76,5.45-1.13,1.07-2.26,2.14-3.4,3.21l-.2,.19c-.19,.18-.38,.36-.57,.54-.19,.19-.45,.29-.7,.29ZM19.33,8.59c-1.11,0-2.22,.16-3.31,.53-3.58,1.21-6.29,3.95-7.62,7.71-1.63,4.61-1.04,10.02,1.55,14.13,2.1,3.33,5.24,6.2,8.26,8.97,.87,.79,1.73,1.58,2.55,2.37,1.91,1.82,3.82,3.63,5.74,5.43,1.14,1.07,2.27,2.15,3.41,3.22l.09,.08,.09-.08c1.13-1.07,2.26-2.14,3.4-3.21,1.92-1.81,3.84-3.62,5.75-5.44,.83-.79,1.69-1.58,2.55-2.37,3.03-2.77,6.16-5.64,8.26-8.97,2.59-4.1,3.18-9.52,1.55-14.13-1.33-3.76-4.04-6.5-7.62-7.71-4.8-1.62-10.03,.73-13.34,3.46-.37,.31-.9,.31-1.28,0-2.55-2.11-6.26-4-10.03-4Z"/><path class="cls-1" d="M30,46.29c-.25,0-.49-.09-.68-.27l-.64-.6c-1.88-1.77-3.83-3.61-5.72-5.42-.86-.82-1.74-1.63-2.6-2.42-2.87-2.63-5.85-5.35-7.72-8.33-2.05-3.25-2.54-7.72-1.24-11.37,.71-2,2.26-4.62,5.65-5.77,.72-.24,1.49-.37,2.31-.37,2.53,0,5.52,1.22,8,3.27l2.66,2.2,2.66-2.2c2.47-2.05,5.46-3.27,7.99-3.27,.81,0,1.59,.12,2.31,.37,3.38,1.14,4.94,3.77,5.65,5.77,1.3,3.65,.81,8.12-1.24,11.37-1.88,2.98-4.85,5.7-7.72,8.33-.86,.79-1.75,1.6-2.6,2.42-1.87,1.78-3.78,3.59-5.63,5.33l-.72,.68c-.19,.18-.44,.27-.69,.27ZM19.34,13.76c-.59,0-1.15,.09-1.67,.26-2.62,.89-3.84,2.96-4.4,4.54-1.1,3.1-.69,6.88,1.05,9.64,1.73,2.75,4.61,5.38,7.38,7.92,.87,.79,1.77,1.62,2.63,2.44,1.88,1.79,3.8,3.61,5.66,5.36,1.9-1.79,3.8-3.59,5.66-5.36,.87-.83,1.76-1.65,2.63-2.44,2.78-2.54,5.65-5.17,7.38-7.92,1.74-2.75,2.15-6.54,1.05-9.63-.56-1.58-1.78-3.65-4.4-4.54-2.31-.78-5.66,.29-8.38,2.55l-3.3,2.73c-.37,.31-.91,.31-1.28,0l-3.3-2.73c-2.13-1.76-4.64-2.81-6.72-2.81Z"/><path class="cls-1" d="M30,39.18c-.25,0-.5-.09-.69-.27-.92-.87-1.86-1.76-2.78-2.64-.87-.83-1.78-1.67-2.59-2.41l-.09-.08c-2.63-2.41-5.33-4.89-6.84-7.27-1.09-1.73-2.09-3.62-1.26-5.96,.63-1.78,1.96-2.79,2.99-3.14,2.19-.75,3.88,.44,5.3,1.61l5.96,4.93,5.96-4.93c1.42-1.17,3.11-2.36,5.3-1.61,1.03,.36,2.36,1.37,2.99,3.14,.83,2.34-.17,4.22-1.26,5.96-1.51,2.39-4.22,4.87-6.84,7.27l-.08,.08c-.81,.74-1.72,1.58-2.59,2.41-.92,.88-1.86,1.77-2.78,2.64-.19,.18-.44,.27-.69,.27Zm-9.89-20.01c-.24,0-.47,.04-.72,.13-.46,.16-1.34,.74-1.76,1.92-.48,1.37-.02,2.5,1.07,4.22,1.36,2.16,3.97,4.55,6.49,6.86l.09,.08c.82,.75,1.74,1.59,2.62,2.44,.69,.66,1.39,1.33,2.09,1.99,.7-.66,1.4-1.33,2.09-1.99,.88-.84,1.8-1.69,2.62-2.44l.08-.08c2.53-2.31,5.14-4.7,6.5-6.86,1.09-1.73,1.55-2.85,1.07-4.22-.42-1.18-1.3-1.76-1.76-1.92-.99-.34-1.81-.03-3.38,1.26l-6.6,5.46c-.37,.31-.91,.31-1.28,0l-6.6-5.46c-1.18-.98-1.93-1.39-2.66-1.39Z"/></svg>