<?xml version="1.0" encoding="UTF-8"?><svg id="a" xmlns="http://www.w3.org/2000/svg" viewBox="0 0 64 64"><defs><style>.b{fill:#fff;}.c{fill:#a8a8a8;}</style></defs><circle class="b" cx="32" cy="32" r="26"/><path class="c" d="M46.01,25.97h-1.05c-.19-.6-.42-1.17-.7-1.7l.74-.74c.77-.79,.77-2.02,0-2.81l-1.72-1.72c-.78-.76-2.04-.76-2.8,0l-.74,.74c-.55-.28-1.12-.52-1.7-.71v-1.05c0-1.1-.89-1.99-1.99-1.99h-2.44c-1.1,0-1.99,.89-1.99,1.99v1.05c-.58,.19-1.15,.42-1.7,.71l-.74-.74c-.77-.77-2.03-.77-2.81,0l-1.72,1.72c-.38,.38-.59,.88-.59,1.41,0,.23,.05,.45,.12,.66-3.47,.36-6.18,3.3-6.18,6.86,0,1.82,.74,3.57,1.96,4.81-1.32,.65-2.42,1.7-3.1,3-.57,1.03-.85,2.16-.85,3.35v5.02c0,1.19,.94,2.15,2.15,2.18h13.52c1.2-.03,2.13-.98,2.13-2.18v-3.47h2.23c1.1,0,1.99-.89,1.99-1.99v-1.04c.58-.19,1.15-.42,1.7-.71l.74,.73c.37,.38,.87,.59,1.39,.59h0c.53,0,1.03-.21,1.41-.59l1.72-1.72c.37-.37,.58-.87,.58-1.4s-.21-1.03-.58-1.4l-.74-.74c.28-.54,.52-1.11,.7-1.7h1.05c1.1,0,1.99-.89,1.99-1.99v-2.44c0-1.1-.89-1.99-1.99-1.99Zm-21.12-2.02c.11,0,.23,0,.39,.02,1.86,.12,3.55,1.15,4.52,2.74,.54,.88,.82,1.9,.82,2.94,0,.21-.01,.42-.04,.63-.07,.62-.25,1.23-.53,1.82h0c-.15,.32-.33,.61-.54,.89-.06,.08-.11,.17-.18,.25v.02c-.29,.34-.61,.65-.97,.92-.26,.2-.51,.36-.82,.53-.05,.04-.14,.08-.21,.11l-.2,.09s-.06,.03-.12,.05l-.29,.1c-.13,.05-.28,.1-.43,.14-.05,.02-.11,.03-.18,.04-.06,.01-.13,.02-.21,.03-.14,.02-.29,.05-.45,.07l-.22,.02c-.12,0-.24,.02-.35,.02-.04,0-.08,0-.21-.01-.12,0-.26,0-.34-.01l-.15-.02c-.08,0-.15-.02-.22-.03l-.48-.1c-.15-.04-.3-.09-.44-.14l-.28-.1c-.06-.02-.1-.04-.12-.05l-.12-.06c-.14-.05-.26-.11-.41-.2-.09-.05-.17-.08-.22-.13l-.11-.08c-.08-.04-.17-.1-.25-.17l-.32-.3h-.04c-1.26-1.06-2-2.64-2-4.31,0-3.15,2.56-5.7,5.7-5.7Zm6.12,2.47c.88-1.23,2.28-1.95,3.8-1.95,2.6,0,4.71,2.11,4.71,4.71s-2.11,4.71-4.71,4.71c-1.36,0-2.65-.6-3.52-1.61,.03-.07,.05-.14,.07-.21,.04-.1,.07-.19,.1-.29,.05-.14,.08-.28,.12-.42,.02-.09,.05-.18,.07-.28,.03-.16,.06-.32,.08-.47,.01-.08,.03-.16,.03-.23,.03-.24,.04-.48,.04-.72,0-.3-.02-.6-.06-.9-.01-.1-.04-.19-.05-.29-.03-.2-.07-.39-.12-.59-.03-.11-.07-.22-.1-.33-.06-.17-.11-.34-.18-.51-.05-.11-.1-.23-.15-.34-.04-.09-.08-.19-.13-.29Zm1.59,19.4c0,.55-.41,.97-.95,.98h-13.5c-.55-.01-.96-.43-.96-.98v-5.02c0-.98,.24-1.92,.71-2.78,.65-1.24,1.75-2.21,3.05-2.7,.07,.05,.14,.09,.2,.13,.15,.13,.3,.2,.4,.25,.17,.1,.34,.18,.52,.25,.09,.05,.17,.08,.25,.11,.12,.06,.23,.1,.35,.13,.15,.06,.32,.1,.5,.16l.52,.11c.11,.02,.23,.04,.34,.05l.16,.02c.15,.01,.31,.02,.38,.02,.1,.01,.2,.02,.3,.02h.02c.14,0,.28,0,.42-.02h.2l.04-.02h.07c.18-.02,.37-.05,.45-.08,.03,0,.05-.01,.08-.02h0c.16-.02,.31-.05,.46-.09,.16-.05,.33-.1,.48-.15,.12-.02,.23-.06,.34-.12,.06-.02,.12-.04,.18-.08h.15l.09-.11c.12-.05,.24-.11,.3-.16,.19-.1,.39-.22,.59-.36,.02-.01,.03-.02,.04-.03,.15,.06,.3,.12,.44,.19,.14,.07,.28,.12,.41,.2,.19,.11,.36,.24,.53,.37,.12,.09,.24,.16,.35,.26,.18,.16,.34,.34,.51,.51,.08,.09,.17,.17,.25,.26,.23,.28,.43,.58,.6,.91,.46,.86,.7,1.79,.7,2.77v5.02Zm14.19-15.43c0,.44-.35,.79-.79,.79h-1.96l-.12,.44c-.22,.82-.54,1.58-.94,2.26l-.23,.4,1.39,1.39c.15,.15,.23,.34,.23,.56s-.08,.41-.23,.56l-1.72,1.72c-.15,.15-.35,.24-.56,.24h0c-.2,0-.4-.08-.55-.24l-1.38-1.37-.4,.23c-.72,.41-1.48,.73-2.27,.94l-.44,.12v1.95c0,.44-.36,.79-.79,.79h-2.23v-.35c0-1.18-.28-2.31-.84-3.34-.15-.29-.34-.57-.53-.83-.04-.05-.08-.11-.12-.16-.19-.25-.4-.49-.63-.71-.04-.04-.09-.08-.13-.12-.22-.21-.45-.4-.69-.57-.03-.02-.06-.05-.09-.07-.26-.18-.54-.35-.83-.49-.03-.02-.06-.04-.09-.05,.04-.04,.07-.09,.1-.13,.18-.2,.35-.4,.51-.61,.06-.08,.11-.15,.16-.23,.02-.04,.05-.07,.07-.1,1.08,1.07,2.56,1.69,4.11,1.69,3.26,0,5.91-2.65,5.91-5.9s-2.65-5.91-5.91-5.91c-1.77,0-3.39,.77-4.5,2.1-.05-.07-.12-.13-.17-.19-.11-.13-.22-.26-.34-.38-.1-.1-.2-.18-.31-.28-.1-.09-.19-.18-.29-.26-.13-.1-.27-.19-.4-.29-.08-.06-.16-.12-.25-.17-.16-.1-.33-.19-.49-.27-.07-.04-.13-.08-.2-.11-.18-.08-.36-.16-.55-.22-.07-.02-.13-.05-.2-.08-.18-.06-.36-.11-.54-.15-.08-.02-.17-.05-.25-.06-.15-.03-.3-.05-.45-.07-.1-.01-.19-.04-.29-.05l-.1-.1c-.15-.15-.24-.35-.24-.56s.08-.41,.24-.56l1.72-1.72c.31-.3,.81-.31,1.11,0l1.38,1.38,.4-.23c.72-.41,1.48-.73,2.27-.94l.44-.12v-1.96c0-.44,.36-.79,.79-.79h2.44c.44,0,.79,.35,.79,.79v1.96l.44,.12c.79,.21,1.55,.53,2.27,.94l.4,.23,1.38-1.38c.31-.31,.8-.31,1.11,0l1.72,1.71c.31,.32,.31,.81,0,1.12l-1.39,1.38,.24,.4c.4,.68,.72,1.44,.94,2.26l.12,.44h1.96c.44,0,.79,.35,.79,.79v2.44Z"/></svg>