<?xml version="1.0" encoding="UTF-8"?><svg id="a" xmlns="http://www.w3.org/2000/svg" viewBox="0 0 64 64"><defs><style>.b{fill:#889092;}</style></defs><path class="b" d="M47.13,38.49h-.94c-.14-.53-.36-1.04-.63-1.51l.66-.66c.34-.34,.34-.89,0-1.23l-1.08-1.08c-.34-.34-.89-.34-1.23,0l-.66,.66c-.47-.27-.97-.48-1.51-.63v-.94c0-.48-.39-.87-.87-.87h-1.53c-.48,0-.87,.39-.87,.87v.94c-.53,.14-1.04,.36-1.51,.63l-.66-.66c-.34-.34-.89-.34-1.23,0l-1.08,1.08c-.34,.34-.34,.89,0,1.23l.66,.66c-.27,.47-.48,.97-.63,1.51h-.94c-.48,0-.87,.39-.87,.87v1.53c0,.48,.39,.87,.87,.87h.94c.14,.53,.36,1.04,.63,1.51l-.66,.66c-.34,.34-.34,.89,0,1.23l1.08,1.08c.34,.34,.89,.34,1.23,0l.66-.66c.47,.27,.97,.48,1.51,.63v.94c0,.48,.39,.87,.87,.87h1.53c.48,0,.87-.39,.87-.87v-.94c.53-.14,1.04-.36,1.51-.63l.66,.66c.34,.34,.89,.34,1.23,0l1.08-1.08c.34-.34,.34-.89,0-1.23l-.66-.66c.27-.47,.48-.97,.63-1.51h.94c.48,0,.87-.39,.87-.87v-1.53c0-.48-.39-.87-.87-.87Zm-7.01,4.96c-1.84,0-3.32-1.49-3.32-3.32s1.49-3.32,3.32-3.32,3.32,1.49,3.32,3.32-1.49,3.32-3.32,3.32Z"/><g><path class="b" d="M18.67,25.47c-.72-.36-1.41-.7-2.1-1.05-.52-.26-.69-.64-.48-1.03,.21-.39,.6-.47,1.13-.21,1.73,.86,3.45,1.72,5.18,2.59,.53,.26,.7,.63,.5,1.02-.2,.4-.6,.48-1.12,.23-.51-.25-1.01-.51-1.59-.8v13.52c-.83,0-1.62,.07-2.39-.02-1.21-.13-1.98-1.26-1.74-2.51,.46-2.35,.97-4.69,1.48-7.02,.35-1.57,.75-3.12,1.13-4.73Z"/><path class="b" d="M29.13,20.2c-1.19-.23-1.91-.93-1.98-1.95-.07-.94,.51-1.83,1.39-2.14,.89-.31,1.88,.01,2.42,.8,.61,.89,.47,1.83-.45,2.89,.19,.12,.4,.22,.57,.36,.38,.32,.55,.74,.47,1.24-.31,1.89-2.13,3.91-4.02,4.25-1.02,.19-2.09,.12-3.14,.11-.5,0-.74-.47-.54-.95,.41-1.01,1.15-1.7,2.25-1.75,1.48-.07,2.27-.88,2.72-2.17,.08-.23,.2-.44,.32-.69Z"/><path class="b" d="M30.22,28.99c.36,1.16,.9,2.06,1.68,2.82,.07,.07,.09,.22,.07,.32-.23,1.13-.48,2.26-.73,3.43h-2.65c.03-2.3,.66-4.41,1.63-6.57Z"/><path class="b" d="M33.41,31.26c.51,.36,1.05,.63,1.61,.85,.22-.06,.45-.1,.69-.1,.41,0,.81,.1,1.17,.27,.24-.71,.77-1.27,1.45-1.57-.02-.53-.2-.68-.76-.81-.71-.18-1.44-.36-2.11-.65-.81-.35-1.24-1.03-1.29-1.94-.03-.59-.07-1.17-.15-1.75-.18-1.23-.55-2.4-1.07-3.39-.56,.91-1.15,1.85-1.72,2.79-.06,.09-.08,.23-.07,.34,.08,.83,.17,1.66,.27,2.49,.17,1.44,.8,2.62,1.99,3.47Z"/><path class="b" d="M30.49,39.36c0-1.02,.59-1.91,1.45-2.34h-10.35v2.76h8.9v-.42Z"/></g></svg>