<?xml version="1.0" encoding="UTF-8"?><svg id="a" xmlns="http://www.w3.org/2000/svg" viewBox="0 0 64 64"><defs><style>.b{fill:#889092;}</style></defs><path class="b" d="M25.38,37.15v-.68c0-2.87-.01-5.75,.01-8.62,0-.47-.12-.7-.58-.84-1.46-.45-2.91-.95-4.44-1.46l-1.24,11.16,6.25,.44Z"/><path class="b" d="M26.8,25.96c-.12,0-.24-.02-.36-.07l-4.56-1.76c-1.12-.43-2-1.33-2.4-2.47l-1.54-4.34c-.18-.52,.09-1.09,.61-1.28,.52-.18,1.09,.09,1.28,.61l1.54,4.34c.21,.58,.66,1.05,1.24,1.27l4.56,1.76c.52,.2,.77,.78,.57,1.29-.15,.4-.53,.64-.93,.64Z"/><path class="b" d="M47.96,42.85c-.09,.46-.47,.82-.96,.82H30.3c-.55,0-1-.45-1-1v-3.35c-2.42-.18-4.84-.36-7.27-.54-.62-.05-1.25-.09-1.87-.13-2.12-.14-3.84,1.22-4.13,3.24-.28,1.97,1.08,3.77,3.16,4.2,.12,.02,.25,.04,.4,.06,.13,1.48,.32,1.83,.95,1.85,.64,.02,.84-.33,1.02-1.84h20.63c.2,1.52,.39,1.85,1.02,1.84,.63-.02,.82-.37,.96-1.87,.34,0,.68,0,1.03,0,1.53-.04,2.75-1.23,2.8-2.72,0-.19-.01-.38-.05-.56Z"/><path class="b" d="M45.06,37.02v-.82h1.19v-.71h-1.19v-.82h1.19v-.71h-1.19v-.82h1.19v-.71h-1.19v-.82h1.19v-4.2c0-.39-.31-.7-.7-.7h-4.2v1.19h-.82v-1.19h-.71v1.19h-.82v-1.19h-.71v1.19h-.82v-1.19h-.71v1.19h-.82v-1.19h-4.2c-.39,0-.7,.31-.7,.7v4.2h1.19v.82h-1.19v.71h1.19v.82h-1.19v.71h1.19v.82h-1.19v.71h1.19v.82h-1.19v4.2c0,.39,.31,.7,.7,.7h4.2v-1.19h.82v1.19h.71v-1.19h.82v1.19h.71v-1.19h.82v1.19h.71v-1.19h.82v1.19h4.2c.39,0,.7-.31,.7-.7v-4.2h-1.19Zm-.99,.36l-2.36,2.36h-6.13l-2.36-2.36v-6.13l2.36-2.36h6.13l2.36,2.36v6.13Z"/><g><path class="b" d="M35.96,36.22c-.13,0-.26-.05-.36-.15l-1.38-1.4c-.19-.19-.19-.51,0-.7l1.38-1.4c.2-.2,.51-.2,.71,0,.2,.19,.2,.51,0,.71l-1.04,1.05,1.04,1.05c.19,.2,.19,.51,0,.71-.1,.1-.22,.14-.35,.14Z"/><path class="b" d="M41.33,36.22c-.13,0-.25-.05-.35-.14-.2-.19-.2-.51,0-.71l1.04-1.05-1.04-1.05c-.19-.2-.19-.51,0-.71,.2-.19,.51-.19,.71,0l1.38,1.4c.19,.19,.19,.51,0,.7l-1.38,1.4c-.1,.1-.23,.15-.36,.15Z"/><path class="b" d="M37.71,36.22c-.09,0-.19-.03-.27-.08-.23-.15-.29-.46-.14-.69l1.84-2.81c.15-.23,.46-.29,.69-.14,.23,.15,.29,.46,.14,.69l-1.84,2.81c-.1,.15-.26,.23-.42,.23Z"/></g></svg>