<?xml version="1.0" encoding="UTF-8"?><svg id="a" xmlns="http://www.w3.org/2000/svg" viewBox="0 0 64 64"><defs><style>.b{fill:#889092;}</style></defs><path class="b" d="M47.13,38.49h-.94c-.14-.53-.36-1.04-.63-1.51l.66-.66c.34-.34,.34-.89,0-1.23l-1.08-1.08c-.34-.34-.89-.34-1.23,0l-.66,.66c-.47-.27-.97-.48-1.51-.63v-.94c0-.48-.39-.87-.87-.87h-1.53c-.48,0-.87,.39-.87,.87v.94c-.53,.14-1.04,.36-1.51,.63l-.66-.66c-.34-.34-.89-.34-1.23,0l-1.08,1.08c-.34,.34-.34,.89,0,1.23l.66,.66c-.27,.47-.48,.97-.63,1.51h-.94c-.48,0-.87,.39-.87,.87v1.53c0,.48,.39,.87,.87,.87h.94c.14,.53,.36,1.04,.63,1.51l-.66,.66c-.34,.34-.34,.89,0,1.23l1.08,1.08c.34,.34,.89,.34,1.23,0l.66-.66c.47,.27,.97,.48,1.51,.63v.94c0,.48,.39,.87,.87,.87h1.53c.48,0,.87-.39,.87-.87v-.94c.53-.14,1.04-.36,1.51-.63l.66,.66c.34,.34,.89,.34,1.23,0l1.08-1.08c.34-.34,.34-.89,0-1.23l-.66-.66c.27-.47,.48-.97,.63-1.51h.94c.48,0,.87-.39,.87-.87v-1.53c0-.48-.39-.87-.87-.87Zm-7.01,4.96c-1.84,0-3.32-1.49-3.32-3.32s1.49-3.32,3.32-3.32,3.32,1.49,3.32,3.32-1.49,3.32-3.32,3.32Z"/><g><path class="b" d="M41.65,28.04h-5.17l-.67-5.29,3.46-1.38c1.09,.94,2.48,4.77,2.38,6.67Z"/><path class="b" d="M18.37,21.36l3.48,1.39-.67,5.29h-5.14c-.26-1.49,1.1-5.34,2.33-6.68Z"/><path class="b" d="M21.23,29.61c.08,.9,.14,1.78,.25,2.65,.11,.88,.28,1.74,.42,2.61l-3.53,1.4c-1.19-1.25-2.44-4.72-2.37-6.67h5.23Z"/><path class="b" d="M22.69,28.03l.63-4.9,4.73,.54v4.36h-5.36Z"/><path class="b" d="M34.97,28.05h-5.35v-4.38l4.71-.53,.64,4.92Z"/><path class="b" d="M23.32,34.52l-.63-4.91h5.35v4.38l-4.73,.54Z"/><path class="b" d="M29.62,16.01c2.46,1.12,3.34,3.31,4.25,5.66l-4.25,.48v-6.14Z"/><path class="b" d="M28.05,16v6.14l-4.26-.47c.9-2.36,1.79-4.54,4.26-5.67Z"/><path class="b" d="M28.04,41.56c-1.71-.5-3.76-3.24-4.16-5.59l4.16-.47v6.07Z"/><path class="b" d="M19.34,20.15c1.2-1.48,3.64-3.07,5.17-3.45l-2.31,4.54-2.86-1.09Z"/><path class="b" d="M35.37,21.29c-.38-.89-.67-1.69-1.05-2.45-.38-.74-.84-1.44-1.3-2.21,2.05,.7,3.77,1.84,5.34,3.5l-2.98,1.16Z"/><path class="b" d="M24.51,40.96c-1.93-.67-3.65-1.8-5.2-3.46l2.89-1.12,2.31,4.58Z"/><path class="b" d="M36.87,32.28c.35-1.04,1.33-1.79,2.48-1.79h1.53c.25,0,.5,.04,.73,.11,.05-.38,.06-.71,.02-.98h-5.15l-.31,2.44c.24,.04,.48,.11,.7,.22Z"/><path class="b" d="M32.77,33.85l1.08-1.08c.24-.24,.52-.43,.82-.56,.14-1.09,.21-2.18,.13-2.6h-5.2v4.37c.94,.11,1.88,.21,2.82,.32,.1-.16,.21-.31,.35-.45Z"/><path class="b" d="M30.49,40.89v-1.53c0-1.15,.75-2.14,1.79-2.48-.17-.35-.26-.73-.27-1.11-.8-.09-1.59-.18-2.39-.27v6.14c.32-.15,.62-.32,.89-.5,0-.08-.02-.16-.02-.25Z"/></g></svg>