<?xml version="1.0" encoding="UTF-8"?><svg id="Layer_1" xmlns="http://www.w3.org/2000/svg" viewBox="0 0 64 64"><defs><style>.cls-1{fill:#889092;}</style></defs><path class="cls-1" d="M36.33,16h-14.92c-.44,0-.8,.36-.8,.8v3.88c0,.44,.36,.8,.8,.8h14.92c.44,0,.8-.36,.8-.8v-3.88c0-.44-.36-.8-.8-.8Z"/><path class="cls-1" d="M47.12,38.48h-.94c-.14-.53-.36-1.04-.63-1.51l.66-.66c.34-.34,.34-.89,0-1.23l-1.08-1.08c-.34-.34-.89-.34-1.23,0l-.66,.66c-.47-.27-.97-.48-1.51-.63v-.94c0-.48-.39-.87-.87-.87h-1.53c-.48,0-.87,.39-.87,.87v.94c-.53,.14-1.04,.36-1.51,.63l-.66-.66c-.34-.34-.89-.34-1.23,0l-1.08,1.08c-.34,.34-.34,.89,0,1.23l.66,.66c-.27,.47-.48,.97-.63,1.51h-.94c-.48,0-.87,.39-.87,.87v1.53c0,.48,.39,.87,.87,.87h.94c.14,.53,.36,1.04,.63,1.51l-.66,.66c-.34,.34-.34,.89,0,1.23l1.08,1.08c.34,.34,.89,.34,1.23,0l.66-.66c.47,.27,.97,.48,1.51,.63v.94c0,.48,.39,.87,.87,.87h1.53c.48,0,.87-.39,.87-.87v-.94c.53-.14,1.04-.36,1.51-.63l.66,.66c.34,.34,.89,.34,1.23,0l1.08-1.08c.34-.34,.34-.89,0-1.23l-.66-.66c.27-.47,.48-.97,.63-1.51h.94c.48,0,.87-.39,.87-.87v-1.53c0-.48-.39-.87-.87-.87Zm-7.01,4.96c-1.84,0-3.32-1.49-3.32-3.32s1.49-3.32,3.32-3.32,3.32,1.49,3.32,3.32-1.49,3.32-3.32,3.32Z"/><path class="cls-1" d="M36.76,47.98h.12s0-.02-.02-.04c-.03,.02-.07,.02-.1,.04h0Z"/><path class="cls-1" d="M33.84,47.45l-1.08-1.08c-.49-.49-.77-1.15-.77-1.85,0-.4,.09-.79,.26-1.14h-5.26c-.48,0-.88-.39-.88-.88s.39-.88,.88-.88h3.59c-.07-.24-.12-.5-.12-.76v-1.01h-10.51c-.48,0-.88-.39-.88-.88s.39-.88,.88-.88h10.82c.31-.58,.84-1.04,1.48-1.25-.49-.98-.32-2.2,.49-3.02l1.08-1.08c.49-.49,1.15-.77,1.85-.77,.41,0,.81,.09,1.17,.27,.35-1.04,1.33-1.79,2.48-1.79h1.53c.3,0,.59,.05,.86,.15v-10.85c0-.57-.46-1.03-1.03-1.03h-1.82v3.45c0,.57-.46,1.03-1.03,1.03H19.89c-.57,0-1.03-.46-1.03-1.03v-3.45h-1.82c-.57,0-1.03,.46-1.03,1.03v27.17c0,.57,.46,1.03,1.03,1.03h17.58c-.28-.13-.55-.3-.78-.53v.02Zm-9.51-17.59h3.54v-3.54h2v3.54h3.54v2h-3.54v3.54h-2v-3.54h-3.54v-2h0Zm-.07,13.51h-4.29c-.48,0-.88-.39-.88-.88s.39-.88,.88-.88h4.29c.48,0,.88,.39,.88,.88s-.39,.88-.88,.88Z"/></svg>