<?xml version="1.0" encoding="UTF-8"?><svg id="a" xmlns="http://www.w3.org/2000/svg" viewBox="0 0 64 64"><defs><style>.b{fill:#889092;}</style></defs><path class="b" d="M39.26,16c-3.78,0-7.56,0-11.34,0,0,.04,.01,.09,.01,.13v7.67c0,.69-.56,1.24-1.24,1.24h-7.17c-.21,0-.42-.04-.62-.09,0,5.82,0,11.63,0,17.45,0,1.3,.72,1.98,2.04,1.98,6.1,0,12.21,0,18.31,0,1.49,0,2.14-.64,2.14-2.12,0-8.04,0-16.08,0-24.12,0-1.48-.65-2.13-2.13-2.13Zm-6.07,21.77h-9.64c-.48,0-.88-.39-.88-.88s.39-.88,.88-.88h9.64c.48,0,.88,.39,.88,.88s-.39,.88-.88,.88Zm4.17-4.07h-13.81c-.48,0-.88-.39-.88-.88s.39-.88,.88-.88h13.81c.48,0,.88,.39,.88,.88s-.39,.88-.88,.88Zm0-4.07h-13.81c-.48,0-.88-.39-.88-.88s.39-.88,.88-.88h13.81c.48,0,.88,.39,.88,.88s-.39,.88-.88,.88Z"/><path class="b" d="M25.56,23.29h-6.04c-.55,0-.83-.67-.44-1.06l6.04-6.04c.39-.39,1.06-.11,1.06,.44v6.04c0,.34-.28,.62-.62,.62Z"/><path class="b" d="M43.13,19.64v22.61c0,2.46-1.42,3.87-3.89,3.87H22.64c.04,1.31,.74,1.87,2.24,1.87,6,0,12,0,18,0,1.6,0,2.23-.64,2.23-2.23,0-7.96,0-15.91,0-23.87,0-1.51-.66-2.27-1.97-2.26Z"/></svg>