<?xml version="1.0" encoding="UTF-8"?><svg id="a" xmlns="http://www.w3.org/2000/svg" viewBox="0 0 64 64"><defs><style>.b{fill:#889092;}</style></defs><path class="b" d="M32.87,26.85c2.93,.66,4.63,3.53,3.79,6.42-.05,.18,0,.38,.15,.5,.43,.36,.84,.75,1.26,1.13,2.31,2.09,6.65,6.21,8.95,8.3,.77,.7,1.18,1.76,.92,2.77-.27,1.06-.97,1.74-2.03,1.98-.99,.23-2.03-.19-2.71-.94-2.44-2.69-6.91-7.42-9.35-10.12-.2-.22-.35-.29-.66-.2-3.7,1.06-7.22-2.3-6.3-6.01,.05-.21,.24-.48,.42-.53,.18-.05,.49,.08,.65,.22,.59,.54,1.13,1.13,1.72,1.68,.11,.1,.31,.17,.45,.15,.49-.06,.97-.19,1.46-.27,.17-.03,.31-.16,.34-.34,.08-.46,.16-.91,.27-1.36,.06-.25,.02-.42-.17-.6-.55-.53-1.08-1.08-1.63-1.62-.2-.2-.38-.4-.29-.72,.09-.3,.33-.39,.6-.43,.36-.06,.72-.1,1.08-.15,.36,.05,.73,.07,1.08,.15Zm11.25,18.43c.03,.6,.52,1.06,1.13,1.05,.64,0,1.11-.51,1.09-1.16-.03-.6-.52-1.07-1.12-1.06-.62,.01-1.13,.55-1.1,1.17Z"/><path class="b" d="M33.15,38.72c-.69,.19-1.41,.3-2.16,.3-4.44,0-8.04-3.6-8.04-8.04s3.6-8.04,8.04-8.04,8.04,3.6,8.04,8.04c0,.75-.11,1.47-.3,2.15,.22,.2,.51,.46,.51,.46,.71,.64,1.62,1.48,2.59,2.39,.28-.61,.53-1.24,.71-1.9h1.78c.91,0,1.65-.74,1.65-1.65v-2.91c0-.91-.74-1.65-1.65-1.65h-1.78c-.27-1.02-.68-1.98-1.19-2.87l1.26-1.26c.64-.64,.64-1.69,0-2.33l-2.05-2.05c-.64-.64-1.69-.64-2.33,0l-1.26,1.26c-.89-.51-1.85-.92-2.87-1.19v-1.78c0-.91-.74-1.65-1.65-1.65h-2.91c-.91,0-1.65,.74-1.65,1.65v1.78c-1.02,.27-1.98,.68-2.87,1.19l-1.26-1.26c-.64-.64-1.69-.64-2.33,0l-2.05,2.05c-.64,.64-.64,1.69,0,2.33l1.26,1.26c-.51,.89-.92,1.85-1.19,2.87h-1.78c-.91,0-1.65,.74-1.65,1.65v2.91c0,.91,.74,1.65,1.65,1.65h1.78c.27,1.02,.68,1.98,1.19,2.87l-1.26,1.26c-.64,.64-.64,1.69,0,2.33l2.05,2.05c.64,.64,1.69,.64,2.33,0l1.26-1.26c.89,.51,1.85,.92,2.87,1.19v1.78c0,.91,.74,1.65,1.65,1.65h2.91c.91,0,1.65-.74,1.65-1.65v-1.78c.67-.18,1.3-.43,1.92-.72-1.04-1.12-2.02-2.18-2.85-3.1Z"/></svg>