<?xml version="1.0" encoding="UTF-8"?><svg id="a" xmlns="http://www.w3.org/2000/svg" viewBox="0 0 64 64"><defs><style>.b{fill:#889092;}</style></defs><rect class="b" x="42" y="16" width="6" height="6" rx=".76" ry=".76"/><rect class="b" x="16" y="16" width="6" height="6" rx=".76" ry=".76"/><rect class="b" x="42" y="42" width="6" height="6" rx=".76" ry=".76"/><rect class="b" x="16" y="42" width="6" height="6" rx=".76" ry=".76"/><g><polygon class="b" points="25.73 25.91 25.73 29.36 30 27.63 25.73 25.91"/><polygon class="b" points="28.84 29.72 35.16 29.72 32 28.44 28.84 29.72"/><polygon class="b" points="35.16 25.55 28.84 25.55 32 26.83 35.16 25.55"/><polygon class="b" points="38.27 29.36 38.27 25.91 34 27.63 38.27 29.36"/><path class="b" d="M41.68,23.75c-.79,0-1.43-.64-1.43-1.43v-2.76H23.75v2.76c0,.79-.64,1.43-1.42,1.43h-2.76v16.5h2.76c.79,0,1.42,.64,1.42,1.42v2.76h16.5v-2.76c0-.79,.64-1.43,1.43-1.43h2.76V23.75h-2.76Zm-2.66,16.2h-14.04c-.41,0-.75-.34-.75-.75s.34-.75,.75-.75h14.04c.41,0,.75,.34,.75,.75s-.34,.75-.75,.75Zm0-2.91h-14.04c-.41,0-.75-.34-.75-.75s.34-.75,.75-.75h14.04c.41,0,.75,.34,.75,.75s-.34,.75-.75,.75Zm0-2.91h-14.04c-.41,0-.75-.34-.75-.75s.34-.75,.75-.75h14.04c.41,0,.75,.34,.75,.75s-.34,.75-.75,.75Zm.75-9.32h0v5.65h0c0,.06-.02,.11-.03,.16,0,.05,0,.09-.03,.14h0s-.01,.03-.02,.04c-.03,.07-.07,.13-.12,.18-.02,.02-.04,.04-.06,.05-.05,.04-.1,.08-.16,.1-.02,.01-.05,.02-.07,.03-.08,.03-.17,.05-.26,.05h-14.04c-.09,0-.18-.02-.26-.05-.03,0-.05-.02-.07-.03-.06-.03-.11-.06-.16-.1-.02-.02-.04-.03-.06-.05-.05-.05-.09-.12-.12-.18,0-.01-.02-.02-.02-.04h0s-.02-.1-.03-.14c0-.05-.03-.09-.03-.14h0v-5.66h0c0-.06,.02-.11,.03-.16,0-.05,0-.09,.03-.14h0c.03-.08,.08-.14,.13-.2,.08-.09,.16-.16,.27-.21,.01,0,.03,0,.04,0,.08-.03,.16-.05,.24-.05h14.05c.08,0,.16,.02,.24,.05,.01,0,.03,0,.04,0,.11,.04,.19,.12,.27,.21,.05,.06,.1,.12,.13,.2h0s.02,.1,.03,.14c0,.05,.03,.09,.03,.14h0Z"/></g></svg>