<?xml version="1.0" encoding="UTF-8"?><svg id="Layer_1" xmlns="http://www.w3.org/2000/svg" viewBox="0 0 64 64"><defs><style>.cls-1{fill:#889092;}</style></defs><rect class="cls-1" x="38.61" y="16" width="3.07" height="7.16" rx="1.54" ry="1.54"/><rect class="cls-1" x="22.57" y="16" width="3.07" height="7.16" rx="1.54" ry="1.54"/><path class="cls-1" d="M46.74,19.28h-3.31v2.34c0,1.81-1.47,3.29-3.29,3.29s-3.29-1.47-3.29-3.29v-2.34h-9.47v2.34c0,1.81-1.47,3.29-3.29,3.29s-3.29-1.47-3.29-3.29v-2.34h-3.56c-.69,0-1.26,.56-1.26,1.26v23.46c0,.69,.56,1.26,1.26,1.26h4.57v-1.75h-4.07V27.12h28.5v16.39h-4.07v1.75h4.57c.69,0,1.26-.56,1.26-1.26V20.54c0-.69-.56-1.26-1.26-1.26Z"/><path class="cls-1" d="M35.69,32.57l-3.3-3.94c-.18-.22-.52-.22-.71,0l-3.3,3.94c-.25,.3-.04,.76,.35,.76h1.82v5.26h2.97v-5.26h1.82c.39,0,.61-.46,.35-.76Z"/><path class="cls-1" d="M39.71,40.33h-15.42c-.4,0-.72,.32-.72,.72v6.23c0,.4,.32,.72,.72,.72h15.42c.4,0,.72-.32,.72-.72v-6.23c0-.4-.32-.72-.72-.72Zm-10.29,5.06c.37,.31,.43,.86,.12,1.23-.17,.21-.42,.32-.68,.32-.19,0-.39-.06-.55-.2l-2.32-1.9c-.2-.17-.32-.41-.32-.68s.12-.51,.32-.68l2.32-1.9c.37-.31,.93-.25,1.23,.12,.31,.37,.25,.92-.12,1.23l-1.49,1.23,1.49,1.22Zm3.94-3.04l-1.04,4.07c-.1,.4-.46,.66-.85,.66-.07,0-.14,0-.22-.03-.47-.12-.75-.6-.63-1.06l1.04-4.07c.12-.47,.6-.75,1.06-.63,.47,.12,.75,.6,.63,1.06Zm4.64,2.5l-2.32,1.9c-.16,.13-.36,.2-.55,.2-.25,0-.5-.11-.68-.32-.31-.37-.25-.92,.12-1.23l1.49-1.22-1.49-1.23c-.37-.31-.43-.86-.12-1.23,.3-.37,.85-.43,1.23-.12l2.32,1.9c.2,.17,.32,.41,.32,.68s-.12,.51-.32,.68Z"/><g><g><rect class="cls-1" x="39.35" y="28.78" width="4.66" height="4.08"/><rect class="cls-1" x="39.35" y="34.5" width="4.66" height="4.08"/></g><g><rect class="cls-1" x="19.98" y="28.78" width="4.66" height="4.08"/><rect class="cls-1" x="19.98" y="34.5" width="4.66" height="4.08"/></g></g></svg>