<svg id="Layer_1" data-name="Layer 1" xmlns="http://www.w3.org/2000/svg" viewBox="0 0 96 96"><path d="M60.87,45.82q10.26,2.38,14.4,5.79a15.4,15.4,0,0,1,5.94,12.53,16.59,16.59,0,0,1-6.53,13.44Q66.66,84,51.37,84H14.79V82q5,0,6.77-.92a5.46,5.46,0,0,0,2.49-2.42q.72-1.48.72-7.33V24.64q0-5.85-.72-7.36a5.24,5.24,0,0,0-2.52-2.41Q19.73,14,14.79,14V12H49.3q12.38,0,17.52,2.2a18.25,18.25,0,0,1,8.12,6.59,16.23,16.23,0,0,1,3,9.31,13.25,13.25,0,0,1-3.77,9.27Q70.37,43.44,60.87,45.82ZM41.55,48.53v23.1l-.06,2.65A5.87,5.87,0,0,0,43,78.61a5.9,5.9,0,0,0,4.33,1.46,16.64,16.64,0,0,0,7.83-1.88,13,13,0,0,0,5.5-5.47,16.79,16.79,0,0,0,1.91-8,17.7,17.7,0,0,0-2.33-9,12.59,12.59,0,0,0-6.43-5.6Q49.67,48.48,41.55,48.53Zm0-4.14q7.53,0,11.12-1.7a12.7,12.7,0,0,0,5.5-4.78,14.71,14.71,0,0,0,1.91-7.86,14.69,14.69,0,0,0-1.89-7.83,12,12,0,0,0-5.38-4.65Q49.3,16,41.55,16Z"/></svg>