<?xml version="1.0" encoding="UTF-8"?><svg id="a" xmlns="http://www.w3.org/2000/svg" viewBox="0 0 64 64"><defs><style>.b{fill:#889092;}</style></defs><path class="b" d="M47.42,39.01h-3.04v-2.32c0-.87-.71-1.58-1.58-1.58h-9.93v-1.53c0-.48-.39-.88-.88-.88s-.88,.39-.88,.88v1.53h-9.92c-.87,0-1.58,.71-1.58,1.58v2.32h-3.04c-.32,0-.58,.26-.58,.58v7.84c0,.32,.26,.58,.58,.58h7.84c.32,0,.58-.26,.58-.58v-7.84c0-.32-.26-.58-.58-.58h-3.04v-2.15h9.75v2.15h-3.04c-.32,0-.58,.26-.58,.58v7.84c0,.32,.26,.58,.58,.58h7.84c.32,0,.58-.26,.58-.58v-7.84c0-.32-.26-.58-.58-.58h-3.04v-2.15h9.76v2.15h-3.04c-.32,0-.58,.26-.58,.58v7.84c0,.32,.26,.58,.58,.58h7.84c.32,0,.58-.26,.58-.58v-7.84c0-.32-.26-.58-.58-.58Z"/><g><circle class="b" cx="32" cy="19.92" r="3.92"/><path class="b" d="M36.18,23.74c-1.04,1.13-2.53,1.85-4.18,1.85s-3.14-.72-4.18-1.85c-1.14,.75-1.89,2.03-1.89,3.49v2.81c0,.5,.41,.91,.91,.91h10.33c.5,0,.91-.41,.91-.91v-2.81c0-1.46-.76-2.74-1.89-3.49Z"/></g></svg>