<?xml version="1.0" encoding="UTF-8"?><svg id="a" xmlns="http://www.w3.org/2000/svg" viewBox="0 0 64 64"><defs><style>.b{fill:#323232;}.c{fill:#f48120;}</style></defs><circle class="c" cx="32" cy="32" r="26"/><g><path class="b" d="M41.59,27.22c1.21-1.22,1.92-2.89,1.92-4.64,0-3.63-2.95-6.58-6.59-6.58-3.24,0-5.95,2.37-6.48,5.46-1.01-.6-2.17-.93-3.37-.93-3.63,0-6.58,2.95-6.58,6.58,0,1.74,.71,3.41,1.91,4.64-2.93,1.11-4.96,3.95-4.96,7.15v5.61c0,1.93,1.57,3.5,3.5,3.5h19.69c1,0,1.81-.81,1.81-1.81s-.81-1.8-1.81-1.8h-.65l.05-.91h3c1.93,0,3.5-1.57,3.5-3.5v-5.61c0-3.2-2.03-6.04-4.96-7.15Zm-4.67-10.01c2.97,0,5.39,2.41,5.39,5.38,0,1.67-.79,3.26-2.1,4.26l-.52,.35c-.06,.05-.12,.08-.23,.14-.09,.05-.17,.1-.23,.12l-.24,.08v.03s-.07,.02-.1,.03l-.23,.09c-.1,.04-.2,.07-.29,.1l-.12,.04c-.13,.03-.24,.06-.34,.07l-.24,.03c-.09,.01-.18,.03-.26,.03h-.18c-.26,.03-.49,.03-.71,.01l-.26-.02c-.07,0-.14-.02-.24-.04-.15-.03-.3-.06-.41-.08l-.16-.05c-.09-.03-.18-.05-.27-.09l-.26-.1s-.1-.03-.22-.09c-.14-.05-.24-.1-.4-.2-.1-.05-.18-.1-.3-.16h-.02c-.06-.07-.13-.12-.17-.15l-.08-.05s-.02-.02-.04-.03l-.05-.04c0-.1-.02-.2-.03-.3,0-.08-.01-.17-.02-.25-.02-.15-.05-.31-.08-.46-.01-.07-.02-.15-.04-.22-.04-.18-.09-.35-.15-.52-.01-.04-.02-.09-.04-.13-.07-.22-.16-.43-.26-.64-.02-.04-.04-.07-.06-.11-.08-.17-.17-.33-.26-.49-.04-.07-.09-.14-.14-.21-.08-.12-.15-.24-.24-.35-.06-.08-.12-.15-.18-.22-.08-.1-.17-.2-.26-.3-.07-.07-.14-.14-.21-.21-.06-.06-.11-.11-.17-.17,.16-2.82,2.52-5.07,5.38-5.07Zm-14.74,12.12c-.04-.08-.07-.16-.1-.24-.11-.27-.2-.55-.26-.83-.01-.05-.02-.1-.03-.16-.06-.33-.1-.66-.1-.99,0-2.96,2.41-5.38,5.38-5.38h.01s.05,0,.07,0c.31,0,.62,.04,.93,.09,.15,.03,.29,.08,.43,.12,.18,.05,.35,.1,.52,.16,.16,.06,.3,.14,.45,.21,.15,.07,.29,.15,.43,.23,.15,.09,.28,.19,.42,.3,.07,.05,.15,.09,.21,.15,.08,.07,.16,.15,.23,.22,.05,.05,.1,.09,.15,.14,.21,.21,.39,.44,.56,.68,.03,.05,.06,.09,.1,.14,.17,.25,.31,.52,.43,.79,.02,.04,.04,.09,.05,.13,.12,.29,.22,.59,.28,.9,0,.03,0,.05,.01,.08,.07,.34,.11,.69,.11,1.05,0,.12,0,.25-.02,.4-.02,.21-.05,.42-.09,.62,0,.04-.02,.09-.03,.13-.07,.3-.16,.6-.28,.89-.02,.04-.04,.07-.05,.11-.12,.27-.26,.53-.42,.78-.02,.02-.03,.05-.04,.07-.18,.26-.38,.5-.6,.73-.02,.02-.05,.05-.07,.07-.15,.15-.31,.3-.48,.43h-.01l-.04,.03h0l-.04,.03c-.11,.08-.23,.17-.35,.24l-.03,.02h0l-.04,.03c-.06,.04-.12,.08-.23,.14-.09,.06-.17,.09-.24,.12l-.08,.03c-.11,.05-.22,.09-.33,.13l-.16,.06c-.13,.05-.25,.09-.42,.13-.07,.02-.13,.03-.19,.04-.02,0-.05,.01-.07,.01-.02,0-.05,.01-.07,.02l-.12,.02c-.11,.02-.24,.04-.36,.04h-.18c-.06,.02-.13,.01-.19,.01-.04,0-.08,.01-.13,.01s-.08-.01-.13-.01c-.09,0-.17,0-.26,0h-.18c-.1-.02-.2-.03-.33-.06-.05,0-.09-.02-.13-.03-.03,0-.07-.01-.1-.02-.07-.01-.14-.03-.21-.04-.13-.03-.27-.07-.39-.13l-.19-.08c-.1-.04-.2-.08-.29-.12-.13-.05-.24-.1-.39-.19-.09-.04-.16-.08-.25-.14l-.09-.06s-.08-.05-.12-.08l-.18-.13-.02-.02c-.18-.14-.35-.29-.5-.44-.03-.03-.05-.06-.08-.09-.19-.2-.36-.41-.52-.63-.04-.05-.08-.1-.12-.16-.15-.24-.29-.48-.4-.74Zm-.54,17.42s0,.04,0,.06h-.7c-1.27,0-2.3-1.03-2.3-2.3v-5.61c0-2.94,2.03-5.52,4.87-6.24,.05,.04,.09,.06,.13,.09,.02,.01,.04,.03,.06,.04,.06,.04,.12,.07,.17,.09,.16,.1,.31,.17,.49,.24,.04,.03,.09,.05,.15,.08h.02s.06,.03,.09,.04c.06,.03,.13,.07,.22,.09l.12,.03c.15,.06,.31,.11,.48,.15,.17,.04,.35,.08,.5,.1,.16,.04,.32,.06,.5,.07h.18c.15,.02,.3,.03,.45,.03,.14,0,.28-.01,.42-.02h.16c.17-.02,.33-.04,.47-.07l.1-.02c.18-.02,.34-.06,.48-.1,.17-.04,.32-.09,.48-.15,.05-.01,.09-.02,.12-.03h0s.04-.01,.06-.02c.07-.02,.13-.05,.18-.08h.02l.03-.02s.05-.02,.07-.03l.33-.15c.07-.03,.13-.07,.19-.1,.08-.04,.16-.09,.23-.13v.02l.2-.13s.08,.02,.12,.03c.3,.08,.59,.18,.87,.3,.03,.01,.07,.02,.1,.04,.3,.13,.58,.3,.86,.47,.06,.04,.13,.08,.19,.13,.27,.19,.53,.39,.76,.62,.01,.01,.02,.02,.03,.04,.22,.22,.43,.46,.62,.71,.03,.03,.05,.07,.07,.1h-8.85c-.46,0-.9,.19-1.23,.54-.38,.4-.58,.96-.55,1.54l.37,7.2h-.64c-1,0-1.81,.81-1.81,1.8,0,.19,.04,.38,.1,.55Zm12.04-6.87c.04,.11,.06,.22,.07,.33,0,.09,0,.18,0,.26,0,.13-.03,.25-.07,.37-.02,.06-.05,.12-.07,.18-.07,.2,.04,.41,.26,.44,.05,0,.1,0,.15,0,.14-.02,.23,.07,.27,.17,.06,.14,.05,.28,0,.42-.03,.09-.08,.16-.16,.22-.08,.06-.17,.08-.26,.05-.08-.03-.13-.09-.16-.17-.03-.06-.03-.13-.03-.2,0-.08-.01-.16-.04-.24-.03-.07-.07-.14-.13-.19-.07-.06-.17-.07-.25-.02-.05,.03-.1,.07-.15,.1-.15,.1-.32,.16-.5,.19-.24,.03-.46,0-.68-.11-.07-.03-.15-.03-.22,0-.11,.04-.19,.11-.26,.21-.07,.11-.12,.23-.14,.36,0,.06-.02,.12-.02,.18,0,.14-.04,.27-.12,.39-.1,.16-.24,.27-.42,.34-.11,.05-.23,.07-.35,.06-.13,0-.25-.05-.35-.15-.08-.08-.12-.17-.14-.28-.02-.19,.04-.36,.16-.51,.11-.14,.25-.24,.42-.29,.07-.02,.14-.03,.21-.05,.15-.03,.3-.08,.43-.18,.13-.1,.23-.22,.26-.38,.02-.09,0-.16-.05-.24-.09-.15-.15-.31-.18-.48-.02-.11-.03-.21-.03-.32,0-.18,.03-.36,.09-.53,.04-.11,.09-.22,.16-.32,.02-.03,.03-.08,.03-.12,0-.11-.04-.21-.11-.29-.09-.12-.22-.19-.36-.25-.1-.04-.21-.07-.32-.08-.12-.02-.24-.07-.34-.14-.15-.1-.26-.23-.33-.39-.03-.08-.05-.16-.05-.24,0-.17,.06-.32,.21-.42,.08-.05,.16-.08,.25-.09,.03,0,.05,0,.07,0,.15,0,.29,.04,.41,.11,.14,.08,.26,.19,.34,.34,.06,.1,.09,.21,.09,.34,0,.17,.04,.33,.13,.47,.07,.12,.17,.22,.31,.27,.07,.03,.14,.04,.22,.01,.05-.02,.1-.04,.14-.05,.09-.03,.17-.04,.26-.05,.14-.01,.28,0,.42,.04,.14,.04,.27,.1,.38,.19,.04,.03,.07,.05,.11,.08,.09,.07,.21,.05,.28-.03,.07-.07,.1-.16,.11-.26,.01-.07,.01-.14,.02-.22,0-.1,.04-.2,.11-.27,.07-.07,.18-.09,.28-.04,.08,.04,.13,.1,.18,.17,.06,.1,.09,.22,.09,.34,0,.11-.04,.21-.13,.29-.05,.04-.11,.06-.18,.05-.11-.01-.21,0-.29,.07-.11,.1-.15,.22-.11,.37,.02,.07,.04,.13,.07,.19Zm6.97,5.72c.34,0,.61,.27,.61,.6s-.27,.61-.61,.61H23.35c-.34,0-.61-.27-.61-.61s.27-.6,.61-.6h17.29Zm4.71-5.62c0,1.27-1.03,2.3-2.3,2.3h-2.94l.27-5.09c.03-.58-.17-1.14-.55-1.54-.33-.35-.77-.54-1.23-.54h-2.9s-.06-.08-.09-.12c-.2-.34-.42-.66-.66-.96v-.02c-.26-.3-.54-.57-.84-.83-.07-.06-.13-.12-.2-.17-.3-.24-.61-.47-.94-.67-.04-.02-.07-.04-.11-.06-.31-.18-.63-.33-.97-.46-.05-.02-.09-.05-.14-.07,.03-.04,.06-.08,.1-.11,.16-.17,.31-.34,.45-.53,.05-.06,.1-.13,.15-.19,.16-.23,.31-.47,.44-.71,.04-.08,.08-.17,.12-.25,.08-.18,.16-.36,.23-.54,.04-.11,.08-.22,.12-.33,.08-.25,.15-.51,.2-.77,0-.02,.01-.04,.02-.06,.06,.04,.11,.06,.15,.08,.16,.11,.35,.2,.48,.24,.08,.05,.17,.09,.27,.12,.11,.06,.22,.11,.34,.13,.1,.04,.2,.07,.31,.1l.18,.05c.17,.04,.34,.08,.49,.1,.11,.03,.22,.04,.34,.05l.33,.03c.15,.01,.31,.02,.47,.02,.13,0,.27,0,.41-.02h.19c.12-.03,.22-.04,.33-.06l.22-.03c.16-.02,.31-.06,.52-.11l.13-.04c.11-.03,.21-.06,.32-.1,.09-.02,.22-.06,.35-.13,.04-.02,.08-.03,.12-.05l.36-.16c.07-.04,.13-.07,.18-.1,.13-.07,.27-.15,.35-.22l.09-.04c2.84,.71,4.87,3.3,4.87,6.24v5.61Z"/><path class="b" d="M32.34,39.47c-.24,.06-.41,.22-.52,.43-.1,.19-.13,.4-.09,.61,.04,.25,.16,.45,.37,.6,.13,.09,.27,.14,.46,.14,.03,0,.08,0,.14-.02,.2-.05,.35-.15,.47-.32,.16-.22,.22-.47,.17-.74-.04-.24-.16-.45-.36-.59-.19-.14-.4-.18-.63-.12Z"/></g></svg>