<?xml version="1.0" encoding="UTF-8"?><svg id="a" xmlns="http://www.w3.org/2000/svg" viewBox="0 0 64 64"><defs><style>.b{fill:#889092;}</style></defs><path class="b" d="M32.53,32.43c-1.47,1.52-3.52,2.46-5.79,2.46s-4.32-.95-5.79-2.46c-2.36,1.06-4,3.43-4,6.18v7.02c0,1.3,1.06,2.36,2.36,2.36h14.87c1.3,0,2.36-1.06,2.36-2.36v-7.02c0-2.76-1.65-5.12-4.01-6.18Z"/><circle class="b" cx="26.74" cy="26.82" r="6.33"/><path class="b" d="M37.26,16c-2.73,0-5.06,1.74-5.94,4.17,2.11,1.46,3.5,3.89,3.5,6.65,0,.44-.05,.87-.12,1.3,.78,.35,1.65,.54,2.56,.54,3.49,0,6.33-2.83,6.33-6.33s-2.83-6.33-6.33-6.33Z"/><path class="b" d="M43.05,27.94c-1.47,1.52-3.52,2.46-5.79,2.46-1.05,0-2.06-.21-3.03-.6-.17,.42-.36,.83-.6,1.21,2.79,1.42,4.66,4.31,4.66,7.6v4.9h6.41c1.3,0,2.36-1.06,2.36-2.36v-7.02c0-2.76-1.65-5.12-4-6.18Z"/></svg>