<?xml version="1.0" encoding="UTF-8"?><svg id="Layer_1" xmlns="http://www.w3.org/2000/svg" viewBox="0 0 64 64"><defs><style>.cls-1{fill:#889092;}</style></defs><path class="cls-1" d="M41,34c-3.87,0-7,3.13-7,7s3.13,7,7,7,7-3.13,7-7-3.13-7-7-7Zm4.48,4.97l-5.31,5.31c-.16,.16-.39,.26-.62,.26s-.46-.09-.62-.26l-2.42-2.42c-.34-.34-.34-.9,0-1.24s.9-.34,1.24,0l1.8,1.8,4.69-4.69c.34-.34,.9-.34,1.24,0s.34,.9,0,1.24Z"/><path class="cls-1" d="M36.33,16h-14.93c-.44,0-.8,.36-.8,.8v3.88c0,.44,.36,.8,.8,.8h14.93c.44,0,.8-.36,.8-.8v-3.88c0-.44-.36-.8-.8-.8Z"/><path class="cls-1" d="M40.71,18.74h-1.82v3.45c0,.57-.46,1.03-1.03,1.03H19.88c-.57,0-1.03-.46-1.03-1.03v-3.45h-1.82c-.57,0-1.03,.46-1.03,1.03v27.19c0,.57,.46,1.03,1.03,1.03h18.74c-1.51-1.13-2.64-2.74-3.17-4.6h-5.58c-.48,0-.88-.39-.88-.88s.39-.88,.88-.88h5.27c-.02-.21-.04-.43-.04-.65,0-.38,.03-.76,.08-1.12h-12.36c-.48,0-.88-.39-.88-.88s.39-.88,.88-.88h12.77c1.19-3.41,4.44-5.88,8.25-5.88,.25,0,.5,.02,.75,.04v-12.51c0-.57-.46-1.03-1.03-1.03v.02Zm-20.74,22.9h4.29c.48,0,.88,.39,.88,.88s-.39,.88-.88,.88h-4.29c-.48,0-.88-.39-.88-.88s.39-.88,.88-.88Zm13.45-9.77h-3.54v3.54h-2v-3.54h-3.54v-2h3.54v-3.54h2v3.54h3.54v2Z"/></svg>