<?xml version="1.0" encoding="UTF-8"?><svg id="Layer_1" xmlns="http://www.w3.org/2000/svg" viewBox="0 0 96 96"><defs><style>.cls-1{fill-rule:evenodd;}.cls-1,.cls-2{fill:#b2b6b8;}</style></defs><path class="cls-2" d="M65.24,82H30.76c-2.76,0-5.01-2.25-5.01-5.01V19.01c0-2.76,2.25-5.01,5.01-5.01h34.48c2.76,0,5.01,2.25,5.01,5.01v57.98c0,2.76-2.25,5.01-5.01,5.01ZM30.76,18.5c-.28,0-.51,.23-.51,.51v57.98c0,.28,.23,.51,.51,.51h34.48c.28,0,.51-.23,.51-.51V19.01c0-.28-.23-.51-.51-.51H30.76Z"/><path class="cls-1" d="M54.25,36.25c-.44,.99,.22,2.15,1.6,1.93,.72-.11,1.27,.61,1.27,1.55s-.61,1.88-1.32,2.04c-.77,.22-1.43-.44-1.43-1.49,0-1.77-1.16-2.32-1.82-1.82-.72,.55-1.54,.94-2.48,1.1-1.05,.17-2.04,0-2.92-.44-.03,0-.07-.01-.11-.03-.04-.01-.08-.03-.11-.03-1.1-.22-2.42,1.05-2.42,3.2,0,1.38-1.16,2.76-2.65,3.15-1.65,.44-3.03-.44-3.03-1.99s1.43-2.98,3.03-3.2c2.31-.33,3.25-1.88,3.09-2.87,0-.11-.06-.22-.11-.33-.61-.94-.94-2.1-.94-3.37,0-1.38,.39-2.6,.99-3.53,.11-.11,.17-.22,.17-.33,.22-1.1-.88-2.43-3.14-2.76-1.65-.22-3.03-1.66-3.03-3.2s1.43-2.43,3.09-2.04c1.49,.39,2.65,1.82,2.65,3.15,0,2.21,1.49,3.31,2.42,3.2,.11,0,.17,0,.28-.06,.88-.39,1.82-.55,2.81-.39,.94,.17,1.76,.55,2.48,1.16,.83,.66,1.82-.06,1.82-1.88,0-1.05,.66-1.77,1.43-1.55,.77,.17,1.32,1.1,1.32,2.04s-.61,1.66-1.32,1.55c-1.38-.22-1.93,1.1-1.6,1.93,.39,.83,.55,1.71,.55,2.65s-.17,1.82-.55,2.65Zm-7.88-2.6c0,2.26,1.76,3.92,3.69,3.7,1.76-.22,3.03-1.88,3.03-3.7s-1.27-3.48-3.03-3.7c-1.93-.22-3.69,1.44-3.69,3.7Z"/><g><path class="cls-2" d="M35.9,65.99c-1.1,0-2-.9-2-2v-7.94c0-1.1,.9-2,2-2s2,.9,2,2v7.94c0,1.1-.9,2-2,2Z"/><path class="cls-2" d="M41.95,65.99c-1.1,0-2-.9-2-2v-9.05c0-1.1,.9-2,2-2s2,.9,2,2v9.05c0,1.1-.9,2-2,2Z"/><path class="cls-2" d="M48,65.99c-1.1,0-2-.9-2-2v-12.39c0-1.1,.9-2,2-2s2,.9,2,2v12.39c0,1.1-.9,2-2,2Z"/><path class="cls-2" d="M54.05,65.99c-1.1,0-2-.9-2-2v-16.64c0-1.1,.9-2,2-2s2,.9,2,2v16.64c0,1.1-.9,2-2,2Z"/><path class="cls-2" d="M60.1,65.99c-1.1,0-2-.9-2-2v-8.32c0-1.1,.9-2,2-2s2,.9,2,2v8.32c0,1.1-.9,2-2,2Z"/></g><path class="cls-2" d="M52.74,75.34h-9.47c-1.1,0-2-.9-2-2s.9-2,2-2h9.47c1.1,0,2,.9,2,2s-.9,2-2,2Z"/></svg>