<?xml version="1.0" encoding="UTF-8"?><svg id="a" xmlns="http://www.w3.org/2000/svg" viewBox="0 0 96 96"><defs><style>.b{fill:#b2b6b8;}</style></defs><path class="b" d="M44.43,39.63c.7-.77,1.29-1.58,2.03-2.22,4.62-4.03,11.44-2.41,14.03,3.32,1.36,3.02,1.24,6.03-.18,9.01-1.49,3.12-3.78,5.62-6.3,7.92-2.66,2.43-5.57,4.54-8.62,6.45-.62,.39-1.13,.41-1.76,.02-4.51-2.82-8.73-5.99-12.18-10.08-1.72-2.04-3.11-4.27-3.69-6.93-1.15-5.26,2.25-10.79,7.37-11.77,3.68-.71,6.6,.72,8.85,3.63,.16,.21,.3,.43,.46,.65Z"/><path class="b" d="M81.43,43.55c-.85-1-2.36-1.12-3.36-.27l-3.16,2.69c-1.08-16.36-15.06-29.2-31.86-28.43-15.62,.72-28.3,13.4-29.02,29.02-.81,17.5,13.14,31.94,30.46,31.94,6.18,0,11.93-1.84,16.73-5,1.16-.77,1.42-2.37,.56-3.46-.76-.97-2.15-1.21-3.18-.53-4.53,2.99-10.06,4.58-15.97,4.16-12.62-.89-22.84-11.05-23.8-23.67-1.14-15.08,10.81-27.73,25.65-27.73,13.49,0,24.58,10.44,25.64,23.66l-3.12-2.65c-1-.85-2.51-.73-3.36,.27-.85,1-.73,2.51,.27,3.36l7.07,6.02c.45,.38,.99,.57,1.54,.57s1.1-.19,1.54-.57l7.07-6.02c1-.85,1.12-2.36,.27-3.36Z"/></svg>