<?xml version="1.0" encoding="UTF-8"?><svg id="Layer_1" xmlns="http://www.w3.org/2000/svg" viewBox="0 0 96 96"><defs><style>.cls-1{fill:#b2b6b8;}</style></defs><path class="cls-1" d="M63.06,36.36h-30.13c-1.24,0-2.25-1.01-2.25-2.25v-11.87c0-1.24,1.01-2.25,2.25-2.25h7.09c1.01-3.46,4.21-6,7.98-6s6.97,2.54,7.98,6h7.09c1.24,0,2.25,1.01,2.25,2.25v11.87c0,1.24-1.01,2.25-2.25,2.25Zm-27.88-4.5h25.63v-7.37h-6.76c-1.23,0-2.24-.99-2.25-2.23-.02-2.08-1.73-3.77-3.81-3.77s-3.78,1.69-3.81,3.77c-.01,1.23-1.02,2.23-2.25,2.23h-6.76v7.37Z"/><path class="cls-1" d="M74,82H22c-1.24,0-2.25-1.01-2.25-2.25V27.61c0-1.24,1.01-2.25,2.25-2.25h10.94c1.24,0,2.25,1.01,2.25,2.25v4.25h25.63v-4.25c0-1.24,1.01-2.25,2.25-2.25h10.94c1.24,0,2.25,1.01,2.25,2.25v52.14c0,1.24-1.01,2.25-2.25,2.25Zm-49.75-4.5h47.5V29.86h-6.44v4.25c0,1.24-1.01,2.25-2.25,2.25h-30.13c-1.24,0-2.25-1.01-2.25-2.25v-4.25h-6.44v47.64Z"/><g><path class="cls-1" d="M47.14,62.66c-.58,0-1.15-.22-1.59-.66l-5-5c-.88-.88-.88-2.3,0-3.18s2.3-.88,3.18,0l3.41,3.41,17.36-17.36c.88-.88,2.3-.88,3.18,0,.88,.88,.88,2.3,0,3.18l-18.95,18.95c-.44,.44-1.01,.66-1.59,.66Z"/><path class="cls-1" d="M59.19,55.8v12.58h-22.29v-22.29h17.16l4.5-4.5h-22.52c-2.01,0-3.64,1.63-3.64,3.64v24.01c0,2.01,1.63,3.64,3.64,3.64h24.01c2.01,0,3.64-1.63,3.64-3.64v-17.94l-4.5,4.5Z"/></g></svg>