<?xml version="1.0" encoding="UTF-8"?><svg id="a" xmlns="http://www.w3.org/2000/svg" viewBox="0 0 96 96"><defs><style>.b{fill:#b2b6b8;}</style></defs><path class="b" d="M57.96,42.92c-2.16,2.18-4.11,4.15-6.42,6.47,.28,.16,.79,.32,1.13,.65,2.62,2.57,5.22,5.17,7.8,7.79,1.96,1.99,1.97,4.23,.02,6.2-4.46,4.49-8.94,8.97-13.43,13.43-1.81,1.8-4.3,1.85-5.91,.2-1.59-1.64-1.52-4,.27-5.8,3.23-3.28,6.5-6.52,9.77-9.77,.34-.34,.77-.6,1.35-1.04-1.76-1.71-3.31-3.2-4.84-4.71-1.45-1.43-2.9-2.86-4.32-4.32-1.83-1.88-1.86-4.14-.02-6.01,5.17-5.22,10.39-10.4,15.58-15.59,1.29-1.29,2.79-1.7,4.49-1,1.7,.7,2.47,2.06,2.48,3.87,.01,2.17,.05,4.34-.01,6.51-.03,.98,.27,1.3,1.27,1.28,3.63-.05,7.26-.07,10.89,0,2.91,.06,4.75,2.96,3.57,5.54-.71,1.55-2.01,2.37-3.69,2.38-5.31,.04-10.62,.06-15.94,0-2.42-.03-3.89-1.6-4.04-4.04-.04-.61,0-1.23,0-2.03Z"/><path class="b" d="M37.98,51.41l5.17,6.34c-.52,.44-1.2,.94-1.79,1.53-5.99,5.97-11.94,11.98-17.97,17.89-.79,.78-1.97,1.38-3.06,1.59-1.61,.31-2.92-.55-3.7-2.01-.82-1.52-.63-2.98,.4-4.35,.21-.28,.47-.53,.72-.78,6.57-6.57,13.14-13.15,19.72-19.72,.25-.25,.51-.47,.54-.5Z"/><path class="b" d="M58.37,25.73c-1.12,.99-2.14,1.83-3.09,2.73-.96,.91-1.85,1.89-2.8,2.88l-2.99-2.11c-2.13,2.13-4.21,4.21-6.3,6.29-.75,.75-1.48,1.52-2.26,2.24-1.76,1.63-4.13,1.64-5.7,.07-1.56-1.56-1.56-4.01,.1-5.71,2.68-2.75,5.43-5.45,8.14-8.16,.91-.91,1.79-1.84,2.73-2.71,1.45-1.34,3.26-1.59,4.87-.55,2.48,1.61,4.88,3.34,7.31,5.01Z"/><path class="b" d="M67.9,17.15c3.32,0,5.97,2.64,5.96,5.96-.01,3.29-2.75,6.01-6,5.96-3.24-.05-5.87-2.7-5.9-5.94-.03-3.32,2.62-5.98,5.94-5.99Z"/><path class="b" d="M25.05,27.06c-1.64,0-3.27,.02-4.91,0-1.27-.02-2.1-.77-2.16-1.86-.06-1.15,.78-2.08,2.08-2.09,3.31-.05,6.63-.05,9.95,0,1.24,.02,2.04,.91,2.03,2.02-.01,1.1-.84,1.91-2.09,1.93-1.63,.04-3.27,0-4.91,0Z"/><path class="b" d="M20.98,35.03c-1.59,0-3.18,.02-4.77,0-1.34-.02-2.2-.81-2.2-1.96,0-1.14,.85-1.99,2.18-2.01,3.23-.04,6.45-.04,9.68,0,1.34,.01,2.19,.84,2.2,1.99,.01,1.18-.88,1.96-2.31,1.98-1.59,.02-3.18,0-4.77,0Z"/><path class="b" d="M25.01,42.99c-1.64,0-3.27,.03-4.91,0-1.26-.03-2.08-.8-2.12-1.9-.03-1.1,.76-2.02,1.99-2.04,3.36-.06,6.72-.06,10.08,0,1.23,.02,2.02,.95,1.99,2.05-.04,1.09-.87,1.87-2.13,1.89-1.63,.03-3.27,0-4.91,0Z"/></svg>