<?xml version="1.0" encoding="UTF-8"?><svg id="Layer_1" xmlns="http://www.w3.org/2000/svg" viewBox="0 0 96 96"><defs><style>.cls-1{fill:#b2b6b8;}</style></defs><path class="cls-1" d="M48,80.58c-.94,0-1.82-.36-2.49-1.02-.2-.19-.4-.38-.59-.57l-4.77-4.51c-2.49-2.35-4.98-4.7-7.45-7.06-1-.96-2.05-1.91-3.1-2.88l-.14-.12c-4.16-3.81-8.46-7.74-11.53-12.61-4.13-6.54-5.08-15.17-2.48-22.5,2.23-6.3,6.81-10.9,12.89-12.96,6.04-2.04,13.28-.68,19.66,3.65,6.37-4.33,13.62-5.69,19.66-3.65,6.08,2.06,10.65,6.66,12.88,12.96,2.6,7.33,1.65,15.96-2.47,22.5-3.07,4.87-7.37,8.81-11.53,12.61l-.2,.18c-1.03,.95-2.05,1.88-3.04,2.82-2.4,2.29-4.81,4.57-7.23,6.84l-.24,.23c-1.47,1.38-2.93,2.76-4.4,4.15l-.25,.24c-.25,.23-.48,.45-.71,.67-.67,.66-1.55,1.02-2.49,1.02Zm.67-4.23h0Zm-14.48-56.45c-1.44,0-2.92,.21-4.41,.71-4.74,1.6-8.32,5.23-10.09,10.2-2.15,6.07-1.37,13.19,2.04,18.6,2.75,4.36,6.82,8.09,10.76,11.69l.14,.12c1.08,.99,2.14,1.96,3.17,2.94,2.47,2.36,4.95,4.7,7.43,7.04l4.76,4.5s.07-.06,.1-.09l.24-.23c1.47-1.39,2.94-2.78,4.41-4.16l.24-.23c2.41-2.27,4.81-4.54,7.21-6.83,1-.96,2.05-1.92,3.1-2.88l.2-.18c3.94-3.61,8.01-7.33,10.77-11.7,3.41-5.41,4.19-12.53,2.04-18.6-1.76-4.97-5.35-8.6-10.09-10.2-7.5-2.53-14.8,2.38-16.86,3.95-.81,.61-1.92,.61-2.73,0-1.65-1.26-6.66-4.66-12.45-4.66Z"/><path class="cls-1" d="M48,72.12c-.56,0-1.11-.2-1.54-.61l-1.84-1.74c-2.48-2.34-4.96-4.68-7.43-7.03-1.03-.99-2.11-1.97-3.2-2.97l-.14-.13c-3.84-3.52-7.82-7.15-10.42-11.28-3.04-4.82-3.77-11.44-1.85-16.86,1.58-4.45,4.63-7.55,8.84-8.97,1.17-.4,2.43-.6,3.74-.6,3.56,0,7.77,1.59,11.26,4.24l2.57,1.96,2.58-1.96c3.49-2.66,7.7-4.24,11.27-4.24,1.3,0,2.56,.2,3.74,.6,4.21,1.42,7.26,4.53,8.84,8.97,1.92,5.42,1.2,12.04-1.85,16.86-2.61,4.14-6.58,7.77-10.42,11.29l-.2,.18c-1.06,.98-2.12,1.94-3.13,2.91-2.39,2.28-4.8,4.55-7.21,6.83l-2.07,1.95c-.43,.41-.99,.61-1.54,.61Zm-13.84-45.7c-.81,0-1.59,.12-2.29,.36-2.9,.98-4.93,3.07-6.04,6.22-1.48,4.17-.92,9.25,1.41,12.95,2.28,3.62,6.03,7.05,9.66,10.37l.14,.13c1.11,1.01,2.2,2.02,3.26,3.03,2.46,2.35,4.93,4.68,7.41,7.01h0s.3,.29,.3,.29l.52-.49c2.4-2.26,4.8-4.53,7.19-6.81,1.04-.99,2.11-1.98,3.2-2.97l.2-.18c3.62-3.32,7.37-6.75,9.66-10.37,2.34-3.7,2.89-8.79,1.41-12.95-1.12-3.15-3.15-5.24-6.04-6.21-.71-.24-1.48-.36-2.29-.36-2.58,0-5.85,1.27-8.54,3.32l-3.94,3c-.8,.61-1.92,.61-2.73,0l-3.94-3c-2.69-2.05-5.96-3.32-8.54-3.32Z"/><path class="cls-1" d="M48,63.18c-.56,0-1.11-.21-1.54-.61-1.6-1.51-3.19-3.02-4.78-4.54-1.07-1.02-2.17-2.04-3.29-3.06l-.13-.12c-3.52-3.22-7.18-6.57-9.32-9.96-1.99-3.15-2.48-7.66-1.22-11.22,.91-2.57,2.48-4.21,4.8-4.99,.5-.17,1.06-.26,1.65-.26,2.12,0,5,1.14,7.33,2.92l6.51,4.96,6.51-4.96c2.33-1.77,5.2-2.92,7.33-2.92,.59,0,1.15,.09,1.65,.25,2.32,.78,3.89,2.42,4.8,4.99,1.26,3.56,.77,8.06-1.22,11.22-2.14,3.4-5.79,6.73-9.31,9.95l-.21,.2c-1.09,1-2.18,2-3.23,3-1.59,1.52-3.18,3.03-4.78,4.54-.43,.41-.99,.61-1.54,.61Zm-13.84-30.26c-.15,0-.21,.02-.21,.02-.48,.16-1.37,.46-2,2.23-.8,2.25-.47,5.33,.78,7.31,1.82,2.88,5.25,6.02,8.56,9.05l.13,.12c1.13,1.04,2.26,2.07,3.35,3.12,1.07,1.02,2.15,2.04,3.22,3.06,1.08-1.02,2.15-2.04,3.22-3.06,1.07-1.02,2.18-2.04,3.29-3.06l.21-.19c3.31-3.03,6.73-6.16,8.55-9.04,1.25-1.98,1.58-5.06,.78-7.31-.63-1.77-1.52-2.07-2-2.23h0s-.07-.02-.21-.02c-.77,0-2.7,.54-4.61,2l-7.88,5.99c-.8,.61-1.92,.61-2.73,0l-7.88-6c-1.91-1.45-3.83-2-4.6-2Z"/></svg>