<?xml version="1.0" encoding="UTF-8"?><svg id="Layer_1" xmlns="http://www.w3.org/2000/svg" viewBox="0 0 64 64"><defs><style>.cls-1{fill:#889092;}</style></defs><g><path class="cls-1" d="M43.1,26.42h1.3c-.02,.24-.07,.48-.13,.71,.6,.1,1.17,.28,1.71,.53,.1-.4,.17-.81,.19-1.23h1.34c.42,0,.64-.49,.37-.8l-2.21-2.56c-.06-.07-.13-.11-.2-.13h0c-.18-.06-.39-.02-.53,.13l-2.21,2.56c-.27,.31-.05,.8,.37,.8Z"/><path class="cls-1" d="M37.34,30.78c-.63-.26-1.21-.63-1.69-1.1-.06-.06-.15-.05-.2,0l-.98,1.13c-.05,.06-.05,.15,0,.2,.66,.63,1.45,1.12,2.33,1.45,.1-.6,.28-1.17,.53-1.7Z"/></g><path class="cls-1" d="M43.23,28.79c-2.63,0-4.77,2.13-4.77,4.77s2.13,4.77,4.77,4.77,4.77-2.13,4.77-4.77-2.13-4.77-4.77-4.77Zm2.86,3.96l-2.76,2.76c-.16,.16-.36,.23-.57,.23s-.41-.08-.57-.23l-1.83-1.83c-.31-.31-.31-.82,0-1.13,.31-.31,.82-.31,1.13,0l1.27,1.27,2.19-2.19c.31-.31,.82-.31,1.13,0,.31,.31,.31,.82,0,1.13Z"/><path class="cls-1" d="M39.27,19.06c-3.83,0-6.94,3.11-6.94,6.94,0,.11,.02,.21,.02,.31h-1.35c-.42,0-.64,.49-.37,.81l2.2,2.55c.19,.22,.54,.22,.74,0l2.2-2.55c.27-.31,.05-.8-.37-.8h-1.29c0-.1-.02-.21-.02-.32,0-2.85,2.31-5.17,5.17-5.17,1.53,0,2.89,.68,3.83,1.74,.1,.11,.27,.11,.37,0l.85-.99c.08-.1,.08-.24,0-.34-1.26-1.34-3.05-2.18-5.03-2.18Z"/><g><path class="cls-1" d="M21.98,28.22c0,.44,.24,.58,.54,.58h.18v-1.1h-.18c-.3,0-.54,.09-.54,.52Z"/><path class="cls-1" d="M23.8,23.56v.6c0,.27,.07,.37,.3,.37s.33-.1,.33-.34c0-.26-.06-.44-.15-.64h-.49Z"/><path class="cls-1" d="M23.52,41.67h-2.2c-.45,0-.73,.29-.73,.94s.28,.94,.73,.94h2.2c.45,0,.73-.29,.73-.94s-.28-.94-.73-.94Z"/><path class="cls-1" d="M30.58,24.6v-.04h.12c.69-4.11,4.27-7.25,8.57-7.25,.74,0,1.46,.1,2.15,.28v-.45c0-.64-.52-1.15-1.15-1.15H17.15c-.64,0-1.15,.52-1.15,1.15v29.69c0,.64,.52,1.15,1.15,1.15h16.94v-6.18c0-.64,.52-1.15,1.15-1.15h6.18v-.85c-2.47-.72-4.34-2.86-4.66-5.48l-.57-.22c-1.09-.41-2.07-1.03-2.91-1.82-.23-.22-.38-.48-.48-.76-.5-.09-.96-.34-1.29-.73l-2.2-2.55c-.57-.66-.7-1.6-.34-2.39,.3-.66,.91-1.13,1.61-1.26Zm-11.06,7.93c0-1.21,.49-1.66,1.27-1.66h.59c.42,0,.71,.18,.92,.64,.11-.48,.53-.85,1.07-.85h.57c.82,0,1.39,.52,1.39,1.68v2.47h-5.8v-2.29Zm0,2.96h1.16v1.56h4.64v1.31h-4.64v1.56h-1.16v-4.43Zm4.11,9.37h-2.42c-.88,0-1.78-.61-1.78-2.25s.9-2.25,1.78-2.25h2.42c.88,0,1.78,.61,1.78,2.25s-.9,2.25-1.78,2.25Zm.05-14.81h-.99c-.92,0-1.7-.41-1.7-1.82s.84-1.72,1.76-1.72h.89v2.28h.12c.49,0,.62-.19,.62-.77,0-.39-.07-.92-.18-1.29l.94-.18c.14,.38,.27,1,.27,1.59,0,1.38-.68,1.9-1.72,1.9Zm.44-4.32c-.85,0-1.19-.39-1.19-1.26v-.91h-.32c-.44,0-.58,.08-.58,.75,0,.38,.04,.75,.12,1.15l-.94,.17c-.12-.4-.21-1.04-.21-1.52,0-1.47,.44-1.79,1.62-1.79h2.71v1.03l-.27,.09c.27,.49,.36,.92,.36,1.21,0,.78-.57,1.11-1.29,1.11Zm.2-4.62h-2.23v.57h-1.01v-.57h-1.02l-.17-1.25h1.19v-.97l1.01,.07v.9h2.06c.17,0,.23-.1,.23-.26,0-.14-.02-.34-.08-.52l.95-.15c.1,.28,.16,.62,.16,.91,0,.81-.3,1.28-1.09,1.28Z"/><path class="cls-1" d="M21.49,32.18h-.5c-.25,0-.41,.16-.41,.52v.81h1.32v-.81c0-.35-.17-.52-.41-.52Z"/><path class="cls-1" d="M23.77,31.97h-.36c-.32,0-.49,.2-.49,.55v.99h1.35v-.81c0-.41-.09-.73-.5-.73Z"/></g><path class="cls-1" d="M41.44,42.41h-4.44c-.64,0-1.15,.52-1.15,1.15v4.44h0l5.6-5.6Z"/></svg>