<?xml version="1.0" encoding="UTF-8"?><svg id="Layer_1" xmlns="http://www.w3.org/2000/svg" viewBox="0 0 64 64"><defs><style>.cls-1{fill:#889092;}</style></defs><path class="cls-1" d="M16,16V48h7.42c-.01-.1-.03-.2-.03-.3v-.49c-.27-.34-.44-.77-.44-1.23v-1.87c0-1.03,.8-1.86,1.8-1.94l.52-1.14c.38-.84,1.22-1.38,2.14-1.38h3.22c.92,0,1.76,.54,2.14,1.38l.51,1.12h1.47c-.73-.84-.76-2.11,0-2.96l1.4-1.58c.43-.48,1.04-.76,1.69-.76h4.39V16H16Zm13.49,15.24l-1.44,1.44v4.81c0,.48-.39,.88-.88,.88h-8.3c-.48,0-.88-.39-.88-.88v-7.7c0-.48,.39-.88,.88-.88h6.25c.48,0,.88,.39,.88,.88s-.39,.88-.88,.88h-5.37v5.95h6.55v-2.19l-.81,.81c-.17,.17-.4,.26-.62,.26s-.45-.09-.62-.26l-1.93-1.93c-.34-.34-.34-.9,0-1.24s.9-.34,1.24,0l1.31,1.31,1.68-1.69,1.69-1.69c.34-.34,.9-.34,1.24,0,.34,.34,.34,.9,0,1.24Zm0-11.28l-1.44,1.44v4.81c0,.48-.39,.88-.88,.88h-8.3c-.48,0-.88-.39-.88-.88v-7.7c0-.48,.39-.88,.88-.88h6.25c.48,0,.88,.39,.88,.88s-.39,.88-.88,.88h-5.37v5.95h6.55v-2.19l-.81,.81c-.17,.17-.4,.26-.62,.26s-.45-.09-.62-.26l-1.93-1.93c-.34-.34-.34-.9,0-1.24s.9-.34,1.24,0l1.31,1.31,1.68-1.69,1.69-1.69c.34-.34,.9-.34,1.24,0,.34,.34,.34,.9,0,1.24Zm9.92,13.54h-6.99c-.48,0-.88-.39-.88-.88s.39-.88,.88-.88h6.99c.48,0,.88,.39,.88,.88s-.39,.88-.88,.88Zm0-2.83h-6.99c-.48,0-.88-.39-.88-.88s.39-.88,.88-.88h6.99c.48,0,.88,.39,.88,.88s-.39,.88-.88,.88Zm0-8.45h-6.99c-.48,0-.88-.39-.88-.88s.39-.88,.88-.88h6.99c.48,0,.88,.39,.88,.88s-.39,.88-.88,.88Zm0-2.83h-6.99c-.48,0-.88-.39-.88-.88s.39-.88,.88-.88h6.99c.48,0,.88,.39,.88,.88s-.39,.88-.88,.88Z"/><g><path class="cls-1" d="M31.17,41.76c-.1-.21-.31-.35-.55-.35h-3.22c-.24,0-.45,.14-.55,.35l-.52,1.15h5.36l-.52-1.15Z"/><path class="cls-1" d="M41.56,45.55c-1.22,0-2.29-.66-2.88-1.64h-13.78c-.11,0-.21,.09-.21,.21v1.87c0,.11,.09,.21,.21,.21h1.21v.68h-.68c-.16,0-.3,.13-.3,.3v.54c0,.16,.13,.3,.3,.3h2.5c.16,0,.3-.13,.3-.3v-.54c0-.16-.13-.3-.3-.3h-.68v-.68h16.43v.68h-.68c-.16,0-.3,.13-.3,.3v.54c0,.16,.13,.3,.3,.3h2.5c.16,0,.3-.13,.3-.3v-.54c0-.16-.13-.3-.3-.3h-.68v-.68h1.21c.11,0,.21-.09,.21-.21v-.49c-.2,.04-.4,.06-.6,.06h-4.07Z"/><path class="cls-1" d="M46.7,40.07c-.28,.32-.68,.52-1.13,.52h-5.76c-.38,.42-.62,.97-.62,1.58h0c0,1.31,1.06,2.37,2.37,2.37h4.07c1.31,0,2.37-1.06,2.37-2.37h0c0-.92-.53-1.71-1.3-2.1Zm-1.06,2.72h-4.07c-.34,0-.62-.28-.62-.62s.28-.62,.62-.62h4.07c.34,0,.62,.28,.62,.62s-.28,.62-.62,.62Z"/><path class="cls-1" d="M36.43,41.18c.14,0,.28-.06,.38-.17l1.25-1.41h7.51c.28,0,.5-.22,.5-.5s-.22-.5-.5-.5h-7.73c-.14,0-.28,.06-.38,.17l-1.4,1.58c-.18,.21-.16,.52,.04,.71,.09,.08,.21,.13,.33,.13Z"/></g></svg>