<?xml version="1.0" encoding="UTF-8"?><svg id="a" xmlns="http://www.w3.org/2000/svg" viewBox="0 0 64 64"><defs><style>.b{fill:#889092;}</style></defs><rect class="b" x="27.61" y="27.63" width="8.73" height="8.7" rx=".59" ry=".59"/><path class="b" d="M25.86,36.85v-9.74c0-.68,.55-1.23,1.23-1.23h9.76v-8.58c0-.72-.58-1.3-1.3-1.3H17.3c-.72,0-1.3,.58-1.3,1.3v18.26c0,.72,.58,1.3,1.3,1.3h8.56Z"/><path class="b" d="M46.7,27.14h-8.61v9.71c0,.68-.55,1.23-1.23,1.23h-9.72v8.62c0,.72,.58,1.3,1.3,1.3h18.26c.72,0,1.3-.58,1.3-1.3V28.44c0-.72-.58-1.3-1.3-1.3Z"/></svg>