<?xml version="1.0" encoding="UTF-8"?><svg id="a" xmlns="http://www.w3.org/2000/svg" viewBox="0 0 64 64"><defs><style>.b{fill:#fff;}.c{fill:#a8a8a8;}</style></defs><circle class="b" cx="32" cy="32" r="26"/><g><path class="c" d="M46.85,28.69h-.55l.46-8.47s0-.05,0-.07c0-.03,0-.06-.01-.09-.02-.09-.06-.18-.12-.25,0,0,0-.02-.01-.02l-2.52-2.83s-.04-.02-.05-.03c-.06-.05-.12-.09-.19-.12-.04-.02-.08-.02-.12-.03-.02,0-.03-.01-.05-.01l-12.62-.77c-.3-.02-.6,.08-.83,.29s-.37,.49-.38,.79l-.52,8.95c-.54,.37-1,.84-1.35,1.4-.56-.1-1.14-.1-1.69,0-.88-1.4-2.41-2.26-4.09-2.26-2.68,0-4.85,2.18-4.85,4.85,0,1.19,.45,2.33,1.21,3.19-.83,.46-1.52,1.15-1.96,1.98-.39,.73-.59,1.52-.59,2.35v6.63c0,.91,.71,1.64,1.64,1.66h3.29v.51c0,.9,.73,1.64,1.65,1.66h9.13c.91-.02,1.63-.74,1.63-1.66v-.51h3.3c.91-.02,1.63-.74,1.63-1.66v-.74h8.6c.63,0,1.15-.52,1.15-1.15v-12.44c0-.63-.52-1.15-1.15-1.15Zm-2.69-9.85l.59,.67-.63-.04,.04-.63Zm-13.17-1.64l12.03,.73-.12,2.07c-.02,.33,.23,.61,.56,.63l2.08,.12-.44,7.94h-4.88c-.17,0-.34,.08-.45,.21l-2.58,2.97h-.64s.03-.1,.04-.15c.07-.19,.13-.38,.18-.58,.02-.09,.04-.17,.06-.26,.05-.28,.08-.57,.08-.86,0-2.68-2.18-4.85-4.86-4.85-.24,0-.47,.02-.71,.06-.07,.01-.15,.03-.22,.04-.16,.03-.32,.07-.47,.12-.03,.01-.07,.01-.1,.02l.44-8.22Zm-.78,9.68c.56-.33,1.2-.51,1.84-.51,2.02,0,3.67,1.64,3.67,3.66,0,.74-.24,1.48-.68,2.11-.19,.29-.45,.56-.75,.79-.16,.11-.31,.23-.53,.34-.04,.02-.07,.04-.14,.07-.07,.02-.13,.04-.18,.07-.03,.01-.07,.02-.1,.04-.04,0-.07,.02-.11,.03-.08,.03-.18,.06-.28,.09-.07,.02-.12,.03-.28,.05-.08,.02-.16,.03-.33,.04-.09,.02-.19,.01-.28,.01-.07,0-.16,0-.25,0h-.05s.02-.09,.03-.13c.01-.05,.02-.1,.04-.15,.07-.28,.12-.57,.13-.86,.02-.13,.02-.24,.02-.34,0-1.5-.67-2.88-1.85-3.81-.24-.18-.49-.34-.75-.47-.04-.02-.08-.05-.12-.07-.03-.02-.06-.04-.09-.05,.29-.37,.64-.68,1.04-.92Zm-2.1,1.8c.45,.12,.89,.35,1.29,.65,.88,.7,1.39,1.74,1.39,2.87,0,.06,0,.12,0,.14,0,.04-.01,.07-.01,.11-.02,.49-.14,.96-.38,1.41-.24,.48-.59,.89-1.04,1.25-.14,.11-.3,.22-.46,.3-.04,.02-.15,.07-.19,.1h-.03c-.05,.03-.1,.05-.15,.08-.05,.01-.1,.04-.15,.06-.03,0-.06,.02-.08,.03-.08,.03-.16,.05-.25,.07-.06,.01-.11,.03-.1,.03h-.01c-.08,0-.14,0-.21,.03h0s-.09,.02-.2,.03h-.06c-.06,0-.12,.01-.19,.02-.11,0-.22,0-.33,0-.06,0-.12,0-.18,0-.07-.02-.19-.04-.25-.04-.1-.02-.2-.03-.35-.07-.07-.02-.14-.04-.21-.06-.03-.01-.07-.02-.1-.03-.09-.05-.21-.1-.26-.12-.07-.03-.13-.06-.26-.13-.05-.02-.1-.05-.21-.12-.04-.02-.1-.06-.14-.09-.04-.03-.04-.04-.09-.07-.44-.34-.79-.76-1.03-1.25-.27-.52-.4-1.07-.4-1.65,0-.21,.02-.41,.05-.61,.23-1.38,1.25-2.54,2.63-2.91,.62-.17,1.33-.17,1.96,0Zm-5.92-2.31c1.15,0,2.21,.53,2.9,1.42h0s-.06,.04-.09,.06c-.19,.09-.38,.2-.55,.31-.07,.05-.14,.1-.21,.16-.13,.1-.25,.19-.37,.3-.07,.07-.14,.14-.21,.21-.1,.11-.2,.21-.3,.33-.06,.08-.12,.16-.18,.24-.08,.12-.16,.24-.24,.37-.05,.09-.1,.17-.14,.26-.07,.13-.13,.27-.18,.41-.03,.09-.07,.18-.1,.27-.05,.16-.09,.32-.12,.49-.02,.08-.04,.16-.05,.24-.04,.25-.06,.5-.06,.76,0,.23,.02,.46,.05,.68,0,.07,.02,.13,.04,.19,.03,.16,.07,.33,.12,.49,.01,.04,.02,.08,.03,.11h-.02c-.09,.02-.2,.01-.29,.01-.12,0-.23,0-.43-.02-.04,0-.09-.01-.22-.04-.08-.01-.17-.03-.26-.05-.1-.02-.19-.06-.28-.09-.03,0-.05-.02-.08-.02-.07-.03-.22-.1-.27-.11-.06-.02-.12-.06-.26-.14-.07-.03-.1-.05-.2-.11-.02-.01-.07-.04-.09-.06-.04-.04-.07-.07-.13-.1-.9-.69-1.44-1.77-1.44-2.9,0-2.02,1.64-3.66,3.66-3.66Zm-4.55,18.26c-.25,0-.45-.21-.45-.46v-6.63c0-.63,.15-1.23,.45-1.79,.4-.76,1.07-1.36,1.87-1.68,.01,0,.02,.01,.03,.02,.13,.1,.25,.16,.3,.17,.11,.07,.26,.15,.37,.19,.07,.03,.12,.06,.19,.08,.06,.04,.15,.08,.26,.1,.11,.04,.22,.07,.32,.1,.11,.03,.23,.05,.41,.09,.13,.03,.25,.05,.28,.04,.33,.05,.8,.04,.9,0,.16,0,.34-.02,.42-.05h.04c.08,.12,.17,.23,.26,.35,.04,.06,.08,.12,.13,.17,.01,.02,.03,.04,.04,.06-.25,.14-.47,.3-.69,.47-.07,.05-.12,.11-.19,.16-.16,.14-.3,.29-.44,.44-.06,.06-.11,.13-.16,.19-.17,.22-.33,.45-.47,.7-.4,.73-.6,1.52-.6,2.35v4.92h-3.28Zm14.49,1.71c0,.25-.2,.46-.44,.46h-9.11c-.26,0-.46-.21-.46-.46v-6.63c0-.63,.15-1.23,.46-1.79,.11-.2,.23-.39,.37-.57,.05-.06,.1-.11,.16-.17,.1-.11,.2-.22,.32-.32,.07-.06,.14-.11,.21-.16,.11-.08,.22-.16,.34-.23,.08-.05,.17-.09,.25-.13,.08-.04,.16-.07,.23-.1h.02c.11,.09,.22,.15,.28,.17,.15,.09,.29,.16,.37,.19,.06,.03,.11,.05,.17,.08,.08,.05,.17,.08,.27,.11,.09,.03,.2,.06,.34,.1,.13,.04,.27,.06,.32,.06,.1,.03,.2,.05,.31,.06,.1,.03,.21,.02,.32,.03,.09,0,.17,.01,.26,.01,.08,0,.16,0,.25-.01,.05,0,.1,0,.14,0,.02,0,.11-.01,.13-.01,0,0,.04,0,.07,0,0,0,.01,0,.02,0h0c.1-.01,.19-.03,.28-.05h.03c.1-.02,.19-.04,.29-.07,.13-.03,.24-.06,.35-.1,.09-.02,.18-.06,.26-.1,.06-.02,.12-.05,.17-.07,.11-.04,.24-.1,.36-.18,.1-.05,.2-.12,.31-.19h0c.08,.03,.16,.06,.24,.1,.08,.04,.17,.08,.25,.13,.12,.07,.23,.15,.34,.23,.07,.05,.15,.1,.21,.16,.11,.1,.21,.21,.32,.32,.05,.06,.11,.11,.16,.17,.14,.18,.27,.37,.37,.57,.3,.56,.45,1.16,.45,1.79v6.63Zm4.92-2.17c0,.25-.2,.46-.44,.46h-3.29v-4.92c0-.82-.2-1.61-.59-2.35-.13-.25-.29-.49-.47-.71-.05-.07-.11-.13-.16-.19-.14-.16-.29-.31-.45-.45-.06-.05-.12-.11-.19-.16-.22-.18-.45-.34-.69-.47,.02-.02,.03-.04,.05-.06,.04-.05,.07-.09,.11-.14,.1-.12,.2-.24,.28-.37h.04c.13,.03,.25,.05,.29,.05,.33,.05,.79,.04,.89,0,.17,0,.35-.02,.43-.05,.15-.01,.29-.04,.41-.08,.11-.03,.22-.07,.32-.1,.1-.02,.19-.06,.27-.1,.05-.02,.1-.04,.15-.07,.01,0,.02,0,.03-.01,.08-.03,.17-.08,.32-.15,.12-.07,.23-.14,.35-.21,.08,.03,.16,.06,.24,.1,.08,.04,.17,.08,.25,.13,.12,.07,.23,.15,.34,.23,.07,.05,.14,.1,.21,.16,.11,.1,.22,.21,.32,.32,.05,.06,.11,.11,.15,.16,.14,.18,.27,.37,.37,.57,.3,.56,.45,1.16,.45,1.79v6.63Zm1.2-1.94v-4.69c0-.82-.2-1.61-.59-2.35-.13-.25-.29-.49-.47-.71-.05-.06-.11-.12-.16-.19-.14-.16-.29-.31-.45-.45-.06-.05-.12-.11-.18-.16-.22-.18-.45-.34-.69-.48,.04-.05,.09-.1,.13-.15h1.62c.17,0,.34-.08,.45-.21l2.58-2.97h6.31l.04,12.35h-8.6Z"/><path class="c" d="M33.53,21.53l9.17,.55h.04c.31,0,.58-.24,.6-.56,.02-.33-.23-.61-.56-.63l-9.17-.55c-.32,0-.61,.23-.63,.56-.02,.33,.23,.61,.56,.63Z"/><path class="c" d="M33.36,24.26l9.17,.55h.04c.31,0,.58-.24,.6-.56,.02-.33-.23-.61-.56-.63l-9.17-.55c-.32,0-.61,.23-.63,.56-.02,.33,.23,.61,.56,.63Z"/></g></svg>