<?xml version="1.0" encoding="iso-8859-1"?>
<!-- Generator: Adobe Illustrator 18.0.0, SVG Export Plug-In . SVG Version: 6.00 Build 0)  -->
<!DOCTYPE svg PUBLIC "-//W3C//DTD SVG 1.1//EN" "http://www.w3.org/Graphics/SVG/1.1/DTD/svg11.dtd">
<svg version="1.1" id="Capa_1" xmlns="http://www.w3.org/2000/svg" xmlns:xlink="http://www.w3.org/1999/xlink" x="0px" y="0px"
	 viewBox="0 0 297 297" style="enable-background:new 0 0 297 297;" xml:space="preserve">
<g>
	<path d="M131.278,38.02c0-5.744-4.656-10.398-10.399-10.398H10.398C4.656,27.621,0,32.275,0,38.02V258.98
		c0,5.742,4.656,10.398,10.398,10.398h276.203c5.742,0,10.398-4.656,10.398-10.398l-0.002-37.523
		c-0.145-23.465-7.587-42.086-22.128-55.355c-13.16-12.008-28.916-16.553-39.815-18.252c-1.74-0.27-4.265-0.57-7.461-0.949
		c-10.697-1.27-30.61-3.635-48.813-8.453c-26.498-7.014-47.502-14.639-47.502-29.162C131.278,89.494,131.278,38.02,131.278,38.02z
		 M275.54,211.754h-31.688v-40.32C257.404,176.311,272.266,187.264,275.54,211.754z M134.972,142.967
		c-1.121,0.512-2.157,1.209-3.035,2.088c-1.934,1.934-3.046,4.617-3.046,7.352c0,2.734,1.112,5.418,3.046,7.352
		c1.945,1.934,4.617,3.047,7.353,3.047c2.735,0,5.418-1.113,7.361-3.047c1.935-1.934,3.038-4.617,3.038-7.352
		c0-0.678-0.068-1.354-0.2-2.016c7.564,3.252,15.103,5.707,21.509,7.49c-0.81,0.459-1.564,1.016-2.228,1.68
		c-1.934,1.934-3.047,4.617-3.047,7.352c0,2.734,1.112,5.418,3.047,7.352c1.935,1.936,4.616,3.047,7.353,3.047
		c2.734,0,5.418-1.111,7.352-3.047c1.934-1.934,3.047-4.605,3.047-7.352c0-2.006-0.603-3.98-1.685-5.656
		c14.744,3.15,29.005,4.947,38.22,6.049v44.449H20.798V85.244h89.021c-0.421,9.639-0.589,22.336,0.94,28.818
		c0.463,1.959,1.115,3.838,1.898,5.652c-0.234-0.016-0.47-0.035-0.705-0.035c-2.736,0-5.418,1.113-7.353,3.049
		c-1.935,1.943-3.047,4.615-3.047,7.361c0,2.734,1.112,5.418,3.047,7.352c1.935,1.936,4.616,3.047,7.353,3.047
		c2.734,0,5.417-1.111,7.351-3.047c1.246-1.252,2.146-2.809,2.633-4.488C125.728,136.719,130.189,140.041,134.972,142.967z
		 M110.48,48.418v15.471H20.798V48.418H110.48z M276.202,248.582H20.798v-16.029h255.404V248.582z"/>
	<path d="M65.64,129.834c-15.887,0-28.813,12.924-28.813,28.811c0,15.887,12.926,28.813,28.813,28.813
		c15.887,0,28.812-12.926,28.812-28.813C94.451,142.758,81.526,129.834,65.64,129.834z M65.64,166.66
		c-4.42,0-8.015-3.596-8.015-8.016c0-4.418,3.595-8.014,8.015-8.014c4.419,0,8.015,3.596,8.015,8.014
		C73.654,163.064,70.059,166.66,65.64,166.66z"/>
</g>
<g>
</g>
<g>
</g>
<g>
</g>
<g>
</g>
<g>
</g>
<g>
</g>
<g>
</g>
<g>
</g>
<g>
</g>
<g>
</g>
<g>
</g>
<g>
</g>
<g>
</g>
<g>
</g>
<g>
</g>
</svg>
